<svg width="20" height="21" viewBox="0 0 20 21" fill="none" xmlns="http://www.w3.org/2000/svg">
<path d="M14.8442 12.4841C15.3356 12.4845 15.8068 12.68 16.1542 13.0277C16.5015 13.3754 16.6966 13.8467 16.6966 14.3382V14.812C16.6966 15.5487 16.4329 16.2615 15.955 16.821C14.6612 18.3315 12.6942 19.0773 10.1018 19.0773C7.50933 19.0773 5.54315 18.3315 4.25269 16.8194C3.77524 16.2601 3.51287 15.549 3.5127 14.8136V14.3373C3.51291 13.8459 3.70824 13.3746 4.05575 13.0271C4.40326 12.6796 4.87452 12.4843 5.36598 12.4841H14.8442ZM14.8442 13.7201H5.36515C5.20124 13.7201 5.04404 13.7853 4.92814 13.9012C4.81223 14.0171 4.74712 14.1743 4.74712 14.3382V14.8136C4.74712 15.2545 4.90534 15.6814 5.1921 16.0168C6.22464 17.2273 7.84554 17.8412 10.101 17.8412C12.358 17.8412 13.9789 17.2273 15.0148 16.0176C15.3021 15.6816 15.4599 15.2541 15.4597 14.812V14.3373C15.4595 14.1739 15.3945 14.0171 15.279 13.9014C15.1635 13.7858 15.0077 13.7206 14.8442 13.7201ZM10.1018 2.59961C10.6429 2.59961 11.1786 2.70618 11.6785 2.91324C12.1784 3.12031 12.6326 3.4238 13.0152 3.8064C13.3978 4.189 13.7013 4.64321 13.9084 5.1431C14.1154 5.64299 14.222 6.17877 14.222 6.71985C14.222 7.26093 14.1154 7.79671 13.9084 8.2966C13.7013 8.79649 13.3978 9.2507 13.0152 9.6333C12.6326 10.0159 12.1784 10.3194 11.6785 10.5265C11.1786 10.7335 10.6429 10.8401 10.1018 10.8401C9.00903 10.8401 7.96103 10.406 7.18833 9.6333C6.41564 8.8606 5.98154 7.8126 5.98154 6.71985C5.98154 5.62709 6.41564 4.57909 7.18833 3.8064C7.96103 3.0337 9.00903 2.59961 10.1018 2.59961ZM10.1018 3.83568C9.72303 3.83568 9.34798 3.91028 8.99806 4.05523C8.64814 4.20017 8.33019 4.41261 8.06237 4.68043C7.79455 4.94825 7.5821 5.2662 7.43716 5.61613C7.29222 5.96605 7.21761 6.34109 7.21761 6.71985C7.21761 7.0986 7.29222 7.47365 7.43716 7.82357C7.5821 8.1735 7.79455 8.49144 8.06237 8.75926C8.33019 9.02708 8.64814 9.23953 8.99806 9.38447C9.34798 9.52942 9.72303 9.60402 10.1018 9.60402C10.8667 9.60402 11.6003 9.30015 12.1412 8.75926C12.6821 8.21838 12.986 7.48478 12.986 6.71985C12.986 5.95492 12.6821 5.22132 12.1412 4.68043C11.6003 4.13955 10.8667 3.83568 10.1018 3.83568Z" fill="#303030"/>
</svg>
