<svg width="25" height="24" viewBox="0 0 25 24" fill="none" xmlns="http://www.w3.org/2000/svg">
<path d="M3.5 6.25C3.5 5.38805 3.84241 4.5614 4.4519 3.9519C5.0614 3.34241 5.88805 3 6.75 3H18.25C19.112 3 19.9386 3.34241 20.5481 3.9519C21.1576 4.5614 21.5 5.38805 21.5 6.25V17.75C21.5 18.612 21.1576 19.4386 20.5481 20.0481C19.9386 20.6576 19.112 21 18.25 21H6.75C5.88805 21 5.0614 20.6576 4.4519 20.0481C3.84241 19.4386 3.5 18.612 3.5 17.75V6.25ZM8.25 9.25C8.51522 9.25 8.76957 9.14464 8.95711 8.95711C9.14464 8.76957 9.25 8.51522 9.25 8.25C9.25 7.98478 9.14464 7.73043 8.95711 7.54289C8.76957 7.35536 8.51522 7.25 8.25 7.25C7.98478 7.25 7.73043 7.35536 7.54289 7.54289C7.35536 7.73043 7.25 7.98478 7.25 8.25C7.25 8.51522 7.35536 8.76957 7.54289 8.95711C7.73043 9.14464 7.98478 9.25 8.25 9.25ZM11.75 7.5C11.5511 7.5 11.3603 7.57902 11.2197 7.71967C11.079 7.86032 11 8.05109 11 8.25C11 8.44891 11.079 8.63968 11.2197 8.78033C11.3603 8.92098 11.5511 9 11.75 9H17.25C17.4489 9 17.6397 8.92098 17.7803 8.78033C17.921 8.63968 18 8.44891 18 8.25C18 8.05109 17.921 7.86032 17.7803 7.71967C17.6397 7.57902 17.4489 7.5 17.25 7.5H11.75ZM11.75 11.25C11.5511 11.25 11.3603 11.329 11.2197 11.4697C11.079 11.6103 11 11.8011 11 12C11 12.1989 11.079 12.3897 11.2197 12.5303C11.3603 12.671 11.5511 12.75 11.75 12.75H17.25C17.4489 12.75 17.6397 12.671 17.7803 12.5303C17.921 12.3897 18 12.1989 18 12C18 11.8011 17.921 11.6103 17.7803 11.4697C17.6397 11.329 17.4489 11.25 17.25 11.25H11.75ZM11 15.75C11 16.164 11.336 16.5 11.75 16.5H17.25C17.4489 16.5 17.6397 16.421 17.7803 16.2803C17.921 16.1397 18 15.9489 18 15.75C18 15.5511 17.921 15.3603 17.7803 15.2197C17.6397 15.079 17.4489 15 17.25 15H11.75C11.5511 15 11.3603 15.079 11.2197 15.2197C11.079 15.3603 11 15.5511 11 15.75ZM9.25 12C9.25 11.7348 9.14464 11.4804 8.95711 11.2929C8.76957 11.1054 8.51522 11 8.25 11C7.98478 11 7.73043 11.1054 7.54289 11.2929C7.35536 11.4804 7.25 11.7348 7.25 12C7.25 12.2652 7.35536 12.5196 7.54289 12.7071C7.73043 12.8946 7.98478 13 8.25 13C8.51522 13 8.76957 12.8946 8.95711 12.7071C9.14464 12.5196 9.25 12.2652 9.25 12ZM8.25 16.75C8.51522 16.75 8.76957 16.6446 8.95711 16.4571C9.14464 16.2696 9.25 16.0152 9.25 15.75C9.25 15.4848 9.14464 15.2304 8.95711 15.0429C8.76957 14.8554 8.51522 14.75 8.25 14.75C7.98478 14.75 7.73043 14.8554 7.54289 15.0429C7.35536 15.2304 7.25 15.4848 7.25 15.75C7.25 16.0152 7.35536 16.2696 7.54289 16.4571C7.73043 16.6446 7.98478 16.75 8.25 16.75Z" fill="#E43135"/>
</svg>
