<svg width="20" height="21" viewBox="0 0 20 21" fill="none" xmlns="http://www.w3.org/2000/svg">
<path d="M7.44911 8.54444C7.3917 8.48689 7.3235 8.44122 7.24842 8.41007C7.17333 8.37891 7.09284 8.36287 7.01154 8.36287C6.93025 8.36287 6.84975 8.37891 6.77467 8.41007C6.69958 8.44122 6.63138 8.48689 6.57397 8.54444L5.77547 9.34418L4.97697 8.54444C4.91951 8.48698 4.85129 8.4414 4.77621 8.4103C4.70113 8.3792 4.62066 8.3632 4.5394 8.3632C4.45813 8.3632 4.37767 8.3792 4.30259 8.4103C4.22751 8.4414 4.15929 8.48698 4.10183 8.54444C4.04437 8.60191 3.99879 8.67012 3.96769 8.7452C3.93659 8.82028 3.92058 8.90075 3.92058 8.98201C3.92058 9.06328 3.93659 9.14375 3.96769 9.21882C3.99879 9.2939 4.04437 9.36212 4.10183 9.41958L4.90157 10.2181L4.10183 11.0166C4.04437 11.0741 3.99879 11.1423 3.96769 11.2173C3.93659 11.2924 3.92058 11.3729 3.92058 11.4542C3.92058 11.5354 3.93659 11.6159 3.96769 11.691C3.99879 11.766 4.04437 11.8343 4.10183 11.8917C4.21788 12.0078 4.37528 12.073 4.5394 12.073C4.62066 12.073 4.70113 12.057 4.77621 12.0259C4.85129 11.9948 4.91951 11.9492 4.97697 11.8917L5.77547 11.092L6.57397 11.8917C6.63144 11.9492 6.69965 11.9948 6.77473 12.0259C6.84981 12.057 6.93028 12.073 7.01154 12.073C7.09281 12.073 7.17328 12.057 7.24835 12.0259C7.32343 11.9948 7.39165 11.9492 7.44911 11.8917C7.50657 11.8343 7.55216 11.766 7.58325 11.691C7.61435 11.6159 7.63036 11.5354 7.63036 11.4542C7.63036 11.3729 7.61435 11.2924 7.58325 11.2173C7.55216 11.1423 7.50657 11.0741 7.44911 11.0166L6.64937 10.2181L7.44911 9.41958C7.50667 9.36217 7.55233 9.29397 7.58349 9.21889C7.61465 9.1438 7.63068 9.06331 7.63068 8.98201C7.63068 8.90072 7.61465 8.82023 7.58349 8.74514C7.55233 8.67005 7.50667 8.60185 7.44911 8.54444ZM11.5183 8.54444C11.5757 8.48698 11.6439 8.4414 11.719 8.4103C11.7941 8.3792 11.8746 8.3632 11.9558 8.3632C12.0371 8.3632 12.1176 8.3792 12.1926 8.4103C12.2677 8.4414 12.3359 8.48698 12.3934 8.54444C12.4509 8.60191 12.4964 8.67012 12.5275 8.7452C12.5586 8.82028 12.5746 8.90075 12.5746 8.98201C12.5746 9.06328 12.5586 9.14375 12.5275 9.21882C12.4964 9.2939 12.4509 9.36212 12.3934 9.41958L11.5937 10.2181L12.3934 11.0166C12.5095 11.1326 12.5746 11.29 12.5746 11.4542C12.5746 11.6183 12.5095 11.7757 12.3934 11.8917C12.2773 12.0078 12.12 12.073 11.9558 12.073C11.7917 12.073 11.6343 12.0078 11.5183 11.8917L10.7198 11.092L9.92126 11.8917C9.86379 11.9492 9.79558 11.9948 9.7205 12.0259C9.64542 12.057 9.56495 12.073 9.48369 12.073C9.40242 12.073 9.32195 12.057 9.24688 12.0259C9.1718 11.9948 9.10358 11.9492 9.04612 11.8917C8.98865 11.8343 8.94307 11.766 8.91197 11.691C8.88088 11.6159 8.86487 11.5354 8.86487 11.4542C8.86487 11.3729 8.88088 11.2924 8.91197 11.2173C8.94307 11.1423 8.98865 11.0741 9.04612 11.0166L9.84586 10.2181L9.04612 9.41958C8.98865 9.36212 8.94307 9.2939 8.91197 9.21882C8.88088 9.14375 8.86487 9.06328 8.86487 8.98201C8.86487 8.90075 8.88088 8.82028 8.91197 8.7452C8.94307 8.67012 8.98865 8.60191 9.04612 8.54444C9.10358 8.48698 9.1718 8.4414 9.24688 8.4103C9.32195 8.3792 9.40242 8.3632 9.48369 8.3632C9.56495 8.3632 9.64542 8.3792 9.7205 8.4103C9.79558 8.4414 9.86379 8.48698 9.92126 8.54444L10.7198 9.34418L11.5183 8.54444ZM14.428 10.8361C14.2641 10.8361 14.1069 10.9012 13.991 11.0171C13.8751 11.133 13.8099 11.2902 13.8099 11.4542C13.8099 11.6181 13.8751 11.7753 13.991 11.8912C14.1069 12.0071 14.2641 12.0722 14.428 12.0722H15.664C15.828 12.0722 15.9852 12.0071 16.1011 11.8912C16.217 11.7753 16.2821 11.6181 16.2821 11.4542C16.2821 11.2902 16.217 11.133 16.1011 11.0171C15.9852 10.9012 15.828 10.8361 15.664 10.8361H14.428ZM4.5394 4.65576C3.71983 4.65576 2.93383 4.98133 2.35431 5.56085C1.77479 6.14038 1.44922 6.92637 1.44922 7.74594V12.6902C1.44922 13.096 1.52915 13.4979 1.68444 13.8728C1.83974 14.2477 2.06736 14.5884 2.35431 14.8753C2.93383 15.4548 3.71983 15.7804 4.5394 15.7804H15.664C16.0699 15.7804 16.4717 15.7005 16.8466 15.5452C17.2215 15.3899 17.5622 15.1623 17.8491 14.8753C18.1361 14.5884 18.3637 14.2477 18.519 13.8728C18.6743 13.4979 18.7542 13.096 18.7542 12.6902V7.74594C18.7542 6.92637 18.4287 6.14038 17.8491 5.56085C17.2696 4.98133 16.4836 4.65576 15.664 4.65576H4.5394ZM2.68529 7.74594C2.68529 7.2542 2.88063 6.7826 3.22835 6.43489C3.57606 6.08718 4.04766 5.89183 4.5394 5.89183H15.664C16.1558 5.89183 16.6274 6.08718 16.9751 6.43489C17.3228 6.7826 17.5182 7.2542 17.5182 7.74594V12.6902C17.5182 13.182 17.3228 13.6536 16.9751 14.0013C16.6274 14.349 16.1558 14.5443 15.664 14.5443H4.5394C4.04766 14.5443 3.57606 14.349 3.22835 14.0013C2.88063 13.6536 2.68529 13.182 2.68529 12.6902V7.74594Z" fill="#303030"/>
</svg>
