<svg width="25" height="24" viewBox="0 0 25 24" fill="none" xmlns="http://www.w3.org/2000/svg">
<path fill-rule="evenodd" clip-rule="evenodd" d="M20.9101 9.85991C20.8518 9.8572 20.7934 9.8562 20.7351 9.85691H18.3C16.308 9.85691 14.6021 11.4379 14.6021 13.4999C14.6021 15.5619 16.3081 17.1429 18.3011 17.1429H20.734C20.7954 17.1436 20.8537 17.1422 20.9091 17.1389C21.3201 17.1122 21.7074 16.9372 21.9992 16.6465C22.2909 16.3557 22.4671 15.9688 22.4951 15.5579C22.4991 15.4989 22.4991 15.4359 22.4991 15.3779V11.6219C22.4991 11.5639 22.4991 11.5009 22.4951 11.4419C22.4671 11.0311 22.291 10.6444 21.9995 10.3537C21.708 10.0629 21.3209 9.88781 20.9101 9.86091M18.0871 14.4719C18.6001 14.4719 19.0171 14.0379 19.0171 13.5009C19.0171 12.9639 18.6001 12.5299 18.0871 12.5299C17.5741 12.5299 17.1581 12.9639 17.1581 13.5009C17.1581 14.0379 17.5731 14.4719 18.0871 14.4719Z" fill="#E43135"/>
<path fill-rule="evenodd" clip-rule="evenodd" d="M20.734 18.6C20.7675 18.5988 20.8008 18.6055 20.8312 18.6196C20.8617 18.6337 20.8884 18.6547 20.9092 18.6809C20.93 18.7072 20.9444 18.738 20.9511 18.7708C20.9579 18.8037 20.9568 18.8377 20.948 18.87C20.754 19.562 20.447 20.152 19.954 20.648C19.233 21.375 18.318 21.698 17.188 21.851C16.09 22 14.688 22 12.916 22H10.879C9.108 22 7.705 22 6.607 21.851C5.477 21.698 4.562 21.375 3.841 20.648C3.12 19.923 2.8 19 2.648 17.862C2.5 16.754 2.5 15.34 2.5 13.555V13.445C2.5 11.66 2.5 10.245 2.648 9.139C2.8 8 3.12 7.08 3.84 6.351C4.561 5.625 5.476 5.301 6.606 5.149C7.705 5 9.108 5 10.879 5H12.916C14.687 5 16.09 5 17.188 5.149C18.318 5.302 19.233 5.625 19.954 6.351C20.447 6.848 20.754 7.438 20.948 8.131C20.9566 8.16328 20.9575 8.19714 20.9507 8.22984C20.9439 8.26255 20.9295 8.2932 20.9087 8.31935C20.8879 8.3455 20.8613 8.36641 20.8309 8.38042C20.8006 8.39442 20.7674 8.40113 20.734 8.4H18.301C15.567 8.4 13.158 10.577 13.158 13.5C13.158 16.423 15.568 18.6 18.302 18.6H20.734ZM6.114 8.886C6.01879 8.88639 5.92459 8.90554 5.83678 8.94233C5.74897 8.97913 5.66927 9.03287 5.60222 9.10047C5.53518 9.16807 5.48211 9.24821 5.44604 9.33633C5.40997 9.42444 5.39161 9.51879 5.392 9.614C5.392 10.017 5.715 10.343 6.114 10.343H9.97C10.37 10.343 10.693 10.017 10.693 9.614C10.6935 9.42163 10.6177 9.2369 10.4821 9.10041C10.3466 8.96391 10.1624 8.88679 9.97 8.886H6.114Z" fill="#E43135"/>
<path d="M8.27698 4.0241L10.235 2.5811C10.746 2.20351 11.3646 1.99976 12 1.99976C12.6353 1.99976 13.254 2.20351 13.765 2.5811L15.734 4.0321C14.91 4.0001 13.99 4.0001 12.983 4.0001H10.813C9.89098 4.0001 9.04398 4.0001 8.27698 4.0241Z" fill="#E43135"/>
</svg>
