<svg width="26" height="26" viewBox="0 0 26 26" fill="none" xmlns="http://www.w3.org/2000/svg">
<path d="M20.3124 9.74996V10.5126C20.3124 11.428 20.5724 12.3229 21.0621 13.0845L22.2624 14.951C23.3577 16.6562 22.5214 18.9735 20.6158 19.5119C15.6365 20.922 10.3634 20.922 5.38411 19.5119C3.47853 18.9735 2.6422 16.6562 3.73745 14.951L4.93778 13.0845C5.42876 12.3166 5.6893 11.424 5.68853 10.5126V9.74996C5.68853 5.56179 8.96236 2.16663 12.9999 2.16663C17.0375 2.16663 20.3124 5.56179 20.3124 9.74996Z" fill="white"/>
<path opacity="0.5" d="M7.84656 20.0905C8.20053 21.1782 8.88968 22.1261 9.81529 22.7983C10.7409 23.4705 11.8555 23.8325 12.9994 23.8325C14.1434 23.8325 15.258 23.4705 16.1836 22.7983C17.1092 22.1261 17.7983 21.1782 18.1523 20.0905C14.7452 20.7296 11.2547 20.7296 7.84656 20.0905Z" fill="white"/>
</svg>
