<svg width="25" height="25" viewBox="0 0 25 25" fill="none" xmlns="http://www.w3.org/2000/svg">
<g clip-path="url(#clip0_235_2928)">
<path d="M7.2296 24.3503H18.649C22.1312 24.3503 24.9644 21.5231 24.9644 18.0481V6.65367C24.9644 3.17868 22.1312 0.35144 18.649 0.35144H7.2296C3.74734 0.35144 0.914185 3.17868 0.914185 6.65367V18.0487C0.914185 21.5231 3.74734 24.3503 7.2296 24.3503ZM2.56168 6.65367C2.56168 4.0851 4.65566 1.9955 7.2296 1.9955H18.649C21.2229 1.9955 23.3169 4.0851 23.3169 6.65367V18.0487C23.3169 20.6172 21.2229 22.7068 18.649 22.7068H7.2296C4.65566 22.7068 2.56168 20.6172 2.56168 18.0487V6.65367Z" fill="#E43135"/>
<path d="M7.62989 19.4749H18.3452C20.3134 19.4749 21.9148 17.9486 21.9148 16.0722C21.9148 14.1306 21.3722 12.5956 20.3008 11.5094L18.2024 9.38909C16.8471 8.01356 15.081 7.98122 13.6844 9.31894L11.4257 11.5044C11.0605 11.8546 10.7239 12.2508 10.4262 12.6016C10.195 12.8734 9.86884 13.2576 9.65741 13.4384C9.60798 13.4011 9.55472 13.36 9.4998 13.3178C8.53491 12.5791 7.59529 11.916 6.70015 11.916C6.33825 11.916 6.00655 12.0294 5.74185 12.2437C4.78356 13.0192 4.0603 14.7728 4.0603 16.3237C4.0603 18.0615 5.66167 19.4749 7.62989 19.4749ZM6.7309 13.5623C7.15815 13.5984 8.12633 14.3394 8.49647 14.6227C8.65298 14.7427 8.79028 14.8474 8.89956 14.9246C9.11703 15.0775 9.36855 15.1586 9.62775 15.1586C10.4147 15.1581 11.0023 14.4659 11.6827 13.6647C11.9678 13.3294 12.2621 12.9825 12.5691 12.6882L14.8278 10.5027C15.5901 9.7727 16.2804 9.78421 17.0283 10.5432L19.1267 12.6635C19.8829 13.4307 20.2662 14.5777 20.2662 16.0727C20.2662 17.0427 19.404 17.8313 18.3441 17.8313H7.62989C6.56999 17.8313 5.7078 17.1556 5.7078 16.3243C5.7078 15.2178 6.23775 14.0089 6.7309 13.5623Z" fill="#E43135"/>
<path d="M9.00892 10.6123C10.0987 10.6123 10.9821 9.7307 10.9821 8.64323C10.9821 7.55576 10.0987 6.67419 9.00892 6.67419C7.91918 6.67419 7.03577 7.55576 7.03577 8.64323C7.03577 9.7307 7.91918 10.6123 9.00892 10.6123Z" fill="#E43135"/>
</g>
<defs>
<clipPath id="clip0_235_2928">
<rect width="24.0502" height="24" fill="white" transform="translate(0.914185 0.350647)"/>
</clipPath>
</defs>
</svg>
