<svg width="31" height="30" viewBox="0 0 31 30" fill="none" xmlns="http://www.w3.org/2000/svg">
<path opacity="0.2" d="M13 25H18C18.825 25 19.5763 25 20.265 24.9925L19.7612 24.4887C19.3868 24.1143 19.1257 23.6416 19.0079 23.1253C18.8902 22.6089 18.9207 22.0698 19.0958 21.57C19.2709 21.0702 19.5836 20.63 19.9979 20.3001C20.4122 19.9701 20.9112 19.7639 21.4375 19.705V17.5C21.4375 16.7541 21.7338 16.0387 22.2613 15.5113C22.7887 14.9838 23.5041 14.6875 24.25 14.6875C24.9959 14.6875 25.7113 14.9838 26.2387 15.5113C26.7662 16.0387 27.0625 16.7541 27.0625 17.5V19.705C27.3425 19.7362 27.6187 19.8088 27.88 19.9237C28 18.6463 28 17.045 28 15C28 14.4475 28 12.99 27.9975 12.5H3.0025C3 12.99 3 14.4475 3 15C3 19.7137 3 22.0712 4.465 23.535C5.93 24.9987 8.28625 25 13 25Z" fill="#E43135"/>
<path fill-rule="evenodd" clip-rule="evenodd" d="M23.5874 25.6625C23.7632 25.8381 24.0015 25.9367 24.2499 25.9367C24.4984 25.9367 24.7367 25.8381 24.9124 25.6625L27.4124 23.1625C27.5046 23.0767 27.5784 22.9732 27.6297 22.8582C27.6809 22.7432 27.7085 22.619 27.7107 22.4932C27.7129 22.3673 27.6898 22.2422 27.6426 22.1255C27.5954 22.0088 27.5253 21.9027 27.4362 21.8137C27.3472 21.7247 27.2412 21.6545 27.1244 21.6073C27.0077 21.5602 26.8827 21.537 26.7568 21.5393C26.6309 21.5415 26.5068 21.569 26.3918 21.6203C26.2768 21.6715 26.1733 21.7454 26.0874 21.8375L25.1874 22.7375V17.5C25.1874 17.2514 25.0887 17.0129 24.9129 16.8371C24.737 16.6613 24.4986 16.5625 24.2499 16.5625C24.0013 16.5625 23.7628 16.6613 23.587 16.8371C23.4112 17.0129 23.3124 17.2514 23.3124 17.5V22.7375L22.4124 21.8375C22.3266 21.7454 22.2231 21.6715 22.1081 21.6203C21.9931 21.569 21.869 21.5415 21.7431 21.5393C21.6172 21.537 21.4922 21.5602 21.3755 21.6073C21.2587 21.6545 21.1527 21.7247 21.0636 21.8137C20.9746 21.9027 20.9044 22.0088 20.8573 22.1255C20.8101 22.2422 20.787 22.3673 20.7892 22.4932C20.7914 22.619 20.819 22.7432 20.8702 22.8582C20.9215 22.9732 20.9953 23.0767 21.0874 23.1625L23.5874 25.6625Z" fill="#E43135"/>
<path d="M16.125 19.0625C15.8764 19.0625 15.6379 19.1613 15.4621 19.3371C15.2863 19.5129 15.1875 19.7514 15.1875 20C15.1875 20.2486 15.2863 20.4871 15.4621 20.6629C15.6379 20.8387 15.8764 20.9375 16.125 20.9375H18C18.2486 20.9375 18.4871 20.8387 18.6629 20.6629C18.8387 20.4871 18.9375 20.2486 18.9375 20C18.9375 19.7514 18.8387 19.5129 18.6629 19.3371C18.4871 19.1613 18.2486 19.0625 18 19.0625H16.125ZM8 19.0625C7.75136 19.0625 7.5129 19.1613 7.33709 19.3371C7.16127 19.5129 7.0625 19.7514 7.0625 20C7.0625 20.2486 7.16127 20.4871 7.33709 20.6629C7.5129 20.8387 7.75136 20.9375 8 20.9375H13C13.2486 20.9375 13.4871 20.8387 13.6629 20.6629C13.8387 20.4871 13.9375 20.2486 13.9375 20C13.9375 19.7514 13.8387 19.5129 13.6629 19.3371C13.4871 19.1613 13.2486 19.0625 13 19.0625H8ZM12.9937 5H18.0063C22.7325 5 25.0963 5 26.5637 6.395C27.6213 7.39875 27.9175 8.845 28 11.25V12.5H3V11.25C3.0825 8.84375 3.37875 7.4 4.43625 6.395C5.90375 5 8.2675 5 12.9937 5Z" fill="#E43135"/>
</svg>
