<svg width="31" height="30" viewBox="0 0 31 30" fill="none" xmlns="http://www.w3.org/2000/svg">
<path opacity="0.2" d="M4.25 13.0212C4.25 9.02375 4.25 7.025 4.7225 6.3525C5.19375 5.68125 7.0725 5.0375 10.8313 3.75125L11.5475 3.50625C13.5063 2.835 14.485 2.5 15.5 2.5C16.515 2.5 17.4937 2.835 19.4525 3.50625L20.1687 3.75125C23.9275 5.0375 25.8062 5.68125 26.2775 6.3525C26.75 7.025 26.75 9.025 26.75 13.0212V14.9887C26.75 22.0362 21.4513 25.4575 18.1262 26.9087C17.225 27.3025 16.775 27.5 15.5 27.5C14.225 27.5 13.775 27.3025 12.8738 26.9087C9.54875 25.4562 4.25 22.0375 4.25 14.9887V13.0212Z" fill="#E43135"/>
<path d="M18 11.25C18 11.913 17.7366 12.5489 17.2678 13.0178C16.7989 13.4866 16.163 13.75 15.5 13.75C14.837 13.75 14.2011 13.4866 13.7322 13.0178C13.2634 12.5489 13 11.913 13 11.25C13 10.587 13.2634 9.95107 13.7322 9.48223C14.2011 9.01339 14.837 8.75 15.5 8.75C16.163 8.75 16.7989 9.01339 17.2678 9.48223C17.7366 9.95107 18 10.587 18 11.25ZM15.5 21.25C20.5 21.25 20.5 20.1312 20.5 18.75C20.5 17.3687 18.2625 16.25 15.5 16.25C12.7375 16.25 10.5 17.3687 10.5 18.75C10.5 20.1312 10.5 21.25 15.5 21.25Z" fill="#E43135"/>
</svg>
