<svg width="31" height="30" viewBox="0 0 31 30" fill="none" xmlns="http://www.w3.org/2000/svg">
<path opacity="0.2" fill-rule="evenodd" clip-rule="evenodd" d="M25.94 13.15L23.795 19.5875C22.2825 24.125 21.525 26.395 20.4162 27.04C19.3612 27.6525 18.0575 27.6525 17.0037 27.04C15.8937 26.395 15.1375 24.1262 13.625 19.5875C13.3812 18.8587 13.26 18.495 13.0562 18.19C12.858 17.8954 12.6046 17.642 12.31 17.4437C12.005 17.24 11.6412 17.1187 10.9125 16.8762C6.37498 15.3637 4.10498 14.6062 3.45998 13.4975C3.15901 12.979 3.00049 12.3901 3.00049 11.7906C3.00049 11.1911 3.15901 10.6022 3.45998 10.0837C4.10498 8.97499 6.37498 8.21874 10.9125 6.70499L17.35 4.55999C22.9725 2.68499 25.7837 1.74749 27.2675 3.23249C28.7512 4.71749 27.815 7.52624 25.94 13.15Z" fill="#E43135"/>
<path d="M16.8076 13.6275C16.633 13.4507 16.5357 13.2119 16.5371 12.9634C16.5385 12.715 16.6385 12.4773 16.8151 12.3025L22.0776 7.09747C22.2552 6.92739 22.4926 6.83393 22.7385 6.83724C22.9844 6.84056 23.2192 6.94038 23.3922 7.11519C23.5652 7.29 23.6626 7.5258 23.6634 7.77175C23.6641 8.01769 23.5682 8.25409 23.3963 8.42997L18.1338 13.635C18.0463 13.7216 17.9425 13.7901 17.8284 13.8366C17.7144 13.8831 17.5923 13.9067 17.4691 13.906C17.346 13.9053 17.2241 13.8804 17.1106 13.8326C16.9971 13.7848 16.8941 13.7151 16.8076 13.6275Z" fill="#E43135"/>
</svg>
