<svg width="20" height="20" viewBox="0 0 20 20" fill="none" xmlns="http://www.w3.org/2000/svg">
<path d="M3.92861 11.7857V3.21425H15.6372L13.1179 7.21425C13.064 7.29979 13.0353 7.39884 13.0353 7.49997C13.0353 7.60109 13.064 7.70014 13.1179 7.78568L15.6372 11.7857H3.92861ZM3.92861 12.8571H16.6072C17.0286 12.8571 17.2857 12.3928 17.0608 12.0357L14.2043 7.49997L17.0608 2.96425C17.1119 2.88318 17.1403 2.78988 17.1431 2.69408C17.1459 2.59828 17.1229 2.50348 17.0766 2.41958C17.0302 2.33568 16.9622 2.26575 16.8797 2.21707C16.7971 2.16839 16.703 2.14275 16.6072 2.14282H3.39289C3.25081 2.14282 3.11455 2.19926 3.01408 2.29973C2.91362 2.4002 2.85718 2.53646 2.85718 2.67854V17.3214C2.85718 17.4635 2.91362 17.5997 3.01408 17.7002C3.11455 17.8007 3.25081 17.8571 3.39289 17.8571C3.53497 17.8571 3.67123 17.8007 3.7717 17.7002C3.87217 17.5997 3.92861 17.4635 3.92861 17.3214V12.8571Z" fill="#555B70" fill-opacity="0.5"/>
</svg>
