<svg width="31" height="30" viewBox="0 0 31 30" fill="none" xmlns="http://www.w3.org/2000/svg">
<path d="M6.615 12.0175C6.615 11.515 7.01875 11.1075 7.5175 11.1075H12.3375C12.8375 11.1075 13.2412 11.515 13.2412 12.0175C13.2417 12.1367 13.2188 12.2548 13.1736 12.3651C13.1285 12.4754 13.062 12.5757 12.9781 12.6603C12.8942 12.745 12.7944 12.8122 12.6845 12.8583C12.5746 12.9043 12.4567 12.9283 12.3375 12.9288H7.5175C7.27703 12.9275 7.04692 12.8308 6.8777 12.6599C6.70849 12.489 6.614 12.258 6.615 12.0175Z" fill="#E43135"/>
<path fill-rule="evenodd" clip-rule="evenodd" d="M26.985 12.505C26.9067 12.5008 26.8233 12.4991 26.735 12.5H23.2688C20.43 12.5 18 14.67 18 17.5C18 20.33 20.43 22.5 23.2688 22.5H26.735C26.8233 22.5008 26.9067 22.4991 26.985 22.495C28.1388 22.425 29.1588 21.5487 29.245 20.3237C29.25 20.2437 29.25 20.1575 29.25 20.0775V14.9225C29.25 14.8425 29.25 14.7562 29.245 14.6762C29.1588 13.4512 28.1388 12.5762 26.985 12.505ZM22.9638 18.8337C23.6938 18.8337 24.2862 18.2362 24.2862 17.5C24.2862 16.7625 23.6938 16.1662 22.9638 16.1662C22.2338 16.1662 21.6387 16.7637 21.6387 17.5C21.6387 18.2375 22.2325 18.8337 22.9638 18.8337Z" fill="#E43135"/>
<path opacity="0.2" d="M26.925 12.5025C26.925 11.0263 26.87 9.4425 25.9275 8.30875C25.8351 8.19793 25.7379 8.09116 25.6362 7.98875C24.7 7.05375 23.5137 6.63875 22.0487 6.44125C20.6237 6.25 18.805 6.25 16.5075 6.25H13.8675C11.57 6.25 9.75 6.25 8.325 6.44125C6.86 6.63875 5.67375 7.05375 4.7375 7.98875C3.8025 8.925 3.3875 10.1113 3.19 11.5763C3 13.0013 3 14.82 3 17.1175V17.2575C3 19.555 3 21.375 3.19125 22.7988C3.38875 24.2638 3.80375 25.45 4.73875 26.3863C5.675 27.3213 6.86125 27.7363 8.32625 27.9338C9.75125 28.125 11.57 28.125 13.8675 28.125H16.5075C18.805 28.125 20.625 28.125 22.0487 27.9338C23.5137 27.7363 24.7 27.3213 25.6362 26.3863C25.8904 26.1296 26.1096 25.8546 26.2937 25.5613C26.8562 24.6613 26.9237 23.5588 26.9237 22.4988L26.7362 22.5H23.2687C20.43 22.5 18 20.33 18 17.5C18 14.67 20.43 12.5 23.2687 12.5H26.735C26.8008 12.5 26.865 12.5008 26.925 12.5025Z" fill="#E43135"/>
<path d="M13.1262 3.21496L10.5 4.98996L8.33374 6.43996C9.75624 6.24996 11.5737 6.24996 13.8675 6.24996H16.5075C18.805 6.24996 20.625 6.24996 22.0487 6.44121C22.3354 6.47871 22.6112 6.52621 22.8762 6.58371L20.5 4.99996L17.8587 3.21496C17.1576 2.74896 16.3344 2.50037 15.4925 2.50037C14.6506 2.50037 13.8274 2.74896 13.1262 3.21496Z" fill="#E43135"/>
</svg>
