<svg width="25" height="24" viewBox="0 0 25 24" fill="none" xmlns="http://www.w3.org/2000/svg">
<path d="M16.4172 2.49349C16.3501 2.45003 16.2749 2.42044 16.1961 2.40645C16.1174 2.39247 16.0366 2.39438 15.9586 2.41207C15.8806 2.42975 15.8069 2.46286 15.7418 2.50945C15.6768 2.55603 15.6217 2.61515 15.5799 2.68333C15.538 2.7515 15.5103 2.82736 15.4982 2.90643C15.486 2.98551 15.4899 3.0662 15.5094 3.14378C15.529 3.22135 15.5638 3.29423 15.6119 3.35814C15.6601 3.42204 15.7205 3.47568 15.7896 3.51589C18.4992 5.17669 20.7336 7.61269 20.9016 12.0239C20.9113 12.1803 20.9817 12.3267 21.0979 12.4318C21.214 12.537 21.3667 12.5925 21.5233 12.5865C21.6799 12.5806 21.8279 12.5136 21.9357 12.4C22.0436 12.2863 22.1027 12.135 22.1004 11.9783C21.912 7.05949 19.3668 4.30069 16.4172 2.49349ZM15.0036 5.67349C15.0928 5.54178 15.2306 5.45086 15.3867 5.42071C15.5429 5.39056 15.7046 5.42364 15.8364 5.51269C17.7648 6.81469 19.0944 8.67829 19.302 10.8215C19.3212 11.0135 19.3308 11.2083 19.3308 11.4059C19.3308 11.565 19.2676 11.7176 19.1551 11.8302C19.0426 11.9427 18.8899 12.0059 18.7308 12.0059C18.5717 12.0059 18.4191 11.9427 18.3066 11.8302C18.194 11.7176 18.1308 11.565 18.1308 11.4059C18.1308 11.2475 18.1228 11.0915 18.1068 10.9379C17.9436 9.23629 16.878 7.66429 15.1644 6.50629C15.0327 6.41714 14.9418 6.27934 14.9116 6.12317C14.8815 5.96701 14.9146 5.80527 15.0036 5.67349ZM6.59642 6.52549C5.09692 7.19371 3.92415 8.43004 3.33593 9.96268C2.74772 11.4953 2.79221 13.1988 3.45962 14.6987L4.92722 17.9975L5.03522 20.7815C5.04097 20.9283 5.0826 21.0716 5.15647 21.1986C5.23034 21.3257 5.33419 21.4327 5.45896 21.5103C5.58373 21.588 5.72562 21.6339 5.87224 21.6441C6.01885 21.6543 6.16572 21.6284 6.30002 21.5687L17.9724 16.3727C18.1068 16.3129 18.2245 16.2211 18.3152 16.1053C18.4059 15.9894 18.4669 15.8531 18.4927 15.7083C18.5185 15.5635 18.5084 15.4145 18.4633 15.2745C18.4182 15.1345 18.3395 15.0076 18.234 14.9051L16.2372 12.9623L14.7684 9.66349C14.1002 8.1643 12.8641 6.99175 11.3317 6.40356C9.79935 5.81537 8.09614 5.85846 6.59642 6.52549ZM4.55642 14.2115C4.0437 13.007 4.0249 11.6492 4.50407 10.4309C4.98324 9.21267 5.922 8.23153 7.11793 7.69906C8.31386 7.16659 9.67114 7.12546 10.8971 7.58453C12.1231 8.04359 13.1195 8.96609 13.6716 10.1531L15.234 13.6631L17.0796 15.4571L6.21722 20.2931L6.11762 17.7215L4.55642 14.2115ZM13.314 21.4523C12.9275 21.6241 12.4925 21.6532 12.0865 21.5346C11.6805 21.4159 11.3297 21.1572 11.0964 20.8043L14.3184 19.3715C14.4242 19.7811 14.3814 20.2149 14.1975 20.5959C14.0136 20.9769 13.7005 21.2803 13.314 21.4523Z" fill="#303030" fill-opacity="0.5"/>
</svg>
