<svg width="25" height="24" viewBox="0 0 25 24" fill="none" xmlns="http://www.w3.org/2000/svg">
<path d="M10.5 12C10.5 10.8954 11.3955 10 12.5 10C13.6046 10 14.5 10.8954 14.5 12C14.5 13.1046 13.6046 14 12.5 14C11.3955 14 10.5 13.1046 10.5 12Z" fill="#D4D4D4"/>
<path fill-rule="evenodd" clip-rule="evenodd" d="M12.5 4C9.63837 4 7.30538 5.26472 5.57678 6.70743C3.85053 8.14818 2.667 9.81429 2.07426 10.7528L2.05017 10.7908C1.93255 10.976 1.77984 11.2164 1.70263 11.5532C1.6403 11.8251 1.6403 12.1749 1.70263 12.4468C1.77984 12.7836 1.93255 13.024 2.05017 13.2092L2.07426 13.2472C2.667 14.1857 3.85053 15.8518 5.57678 17.2926C7.30538 18.7353 9.63837 20 12.5 20C15.3617 20 17.6947 18.7353 19.4233 17.2926C21.1495 15.8518 22.3331 14.1857 22.9258 13.2472L22.9499 13.2092C23.0675 13.024 23.2202 12.7837 23.2974 12.4468C23.3598 12.1749 23.3598 11.8251 23.2974 11.5532C23.2202 11.2163 23.0675 10.976 22.9499 10.7908L22.9258 10.7528C22.3331 9.81429 21.1495 8.14818 19.4233 6.70743C17.6947 5.26472 15.3617 4 12.5 4ZM12.5 8C10.2909 8 8.50003 9.79086 8.50003 12C8.50003 14.2091 10.2909 16 12.5 16C14.7092 16 16.5 14.2091 16.5 12C16.5 9.79086 14.7092 8 12.5 8Z" fill="#D4D4D4"/>
</svg>
