<svg width="25" height="24" viewBox="0 0 25 24" fill="none" xmlns="http://www.w3.org/2000/svg">
<path d="M13.625 12.2501C13.625 12.5485 13.5065 12.8346 13.2955 13.0456C13.0845 13.2566 12.7984 13.3751 12.5 13.3751C12.2016 13.3751 11.9155 13.2566 11.7045 13.0456C11.4935 12.8346 11.375 12.5485 11.375 12.2501C11.375 11.9517 11.4935 11.6656 11.7045 11.4546C11.9155 11.2436 12.2016 11.1251 12.5 11.1251C12.7984 11.1251 13.0845 11.2436 13.2955 11.4546C13.5065 11.6656 13.625 11.9517 13.625 12.2501ZM9 13.3751C9.29837 13.3751 9.58452 13.2566 9.7955 13.0456C10.0065 12.8346 10.125 12.5485 10.125 12.2501C10.125 11.9517 10.0065 11.6656 9.7955 11.4546C9.58452 11.2436 9.29837 11.1251 9 11.1251C8.70163 11.1251 8.41549 11.2436 8.20451 11.4546C7.99353 11.6656 7.875 11.9517 7.875 12.2501C7.875 12.5485 7.99353 12.8346 8.20451 13.0456C8.41549 13.2566 8.70163 13.3751 9 13.3751ZM17.125 12.2501C17.125 12.5485 17.0065 12.8346 16.7955 13.0456C16.5845 13.2566 16.2984 13.3751 16 13.3751C15.7016 13.3751 15.4155 13.2566 15.2045 13.0456C14.9935 12.8346 14.875 12.5485 14.875 12.2501C14.875 11.9517 14.9935 11.6656 15.2045 11.4546C15.4155 11.2436 15.7016 11.1251 16 11.1251C16.2984 11.1251 16.5845 11.2436 16.7955 11.4546C17.0065 11.6656 17.125 11.9517 17.125 12.2501ZM12.5 16.8751C12.7984 16.8751 13.0845 16.7566 13.2955 16.5456C13.5065 16.3346 13.625 16.0485 13.625 15.7501C13.625 15.4517 13.5065 15.1656 13.2955 14.9546C13.0845 14.7436 12.7984 14.6251 12.5 14.6251C12.2016 14.6251 11.9155 14.7436 11.7045 14.9546C11.4935 15.1656 11.375 15.4517 11.375 15.7501C11.375 16.0485 11.4935 16.3346 11.7045 16.5456C11.9155 16.7566 12.2016 16.8751 12.5 16.8751ZM10.125 15.7501C10.125 16.0485 10.0065 16.3346 9.7955 16.5456C9.58452 16.7566 9.29837 16.8751 9 16.8751C8.70163 16.8751 8.41549 16.7566 8.20451 16.5456C7.99353 16.3346 7.875 16.0485 7.875 15.7501C7.875 15.4517 7.99353 15.1656 8.20451 14.9546C8.41549 14.7436 8.70163 14.6251 9 14.6251C9.29837 14.6251 9.58452 14.7436 9.7955 14.9546C10.0065 15.1656 10.125 15.4517 10.125 15.7501ZM16 16.8751C16.2984 16.8751 16.5845 16.7566 16.7955 16.5456C17.0065 16.3346 17.125 16.0485 17.125 15.7501C17.125 15.4517 17.0065 15.1656 16.7955 14.9546C16.5845 14.7436 16.2984 14.6251 16 14.6251C15.7016 14.6251 15.4155 14.7436 15.2045 14.9546C14.9935 15.1656 14.875 15.4517 14.875 15.7501C14.875 16.0485 14.9935 16.3346 15.2045 16.5456C15.4155 16.7566 15.7016 16.8751 16 16.8751ZM13.697 2.92761C13.3593 2.65124 12.9364 2.50024 12.5 2.50024C12.0636 2.50024 11.6407 2.65124 11.303 2.92761L4.7155 8.29861C4.49135 8.48238 4.31087 8.7137 4.18713 8.97581C4.06338 9.23791 3.99946 9.52426 4 9.81411V19.5566C4 20.6301 4.8565 21.5001 5.9125 21.5001H19.0875C20.144 21.5001 21 20.6301 21 19.5566V9.81411C21.0005 9.52426 20.9366 9.23791 20.8129 8.97581C20.6891 8.7137 20.5087 8.48238 20.2845 8.29861L13.697 2.92761ZM17 20.2051V20.2041L16.9625 20.2051H5.9125C5.5605 20.2051 5.275 19.9151 5.275 19.5571V9.81411C5.27473 9.7175 5.296 9.62205 5.33725 9.53469C5.37851 9.44733 5.43872 9.37027 5.5135 9.30911L12.101 3.93761C12.2136 3.84549 12.3545 3.79516 12.5 3.79516C12.6455 3.79516 12.7864 3.84549 12.899 3.93761L19.4865 9.30811C19.6375 9.43111 19.725 9.61711 19.725 9.81361V19.5561C19.725 19.9141 19.44 20.2041 19.0875 20.2041L17 20.2051Z" fill="#303030" fill-opacity="0.5"/>
</svg>
