<svg width="28" height="28" viewBox="0 0 28 28" fill="none" xmlns="http://www.w3.org/2000/svg">
<path d="M6.2998 4.90005C5.9285 4.90005 5.57241 5.04755 5.30985 5.3101C5.0473 5.57265 4.8998 5.92875 4.8998 6.30005V9.45005C4.8998 9.72853 4.78918 9.9956 4.59227 10.1925C4.39535 10.3894 4.12828 10.5 3.8498 10.5C3.57133 10.5 3.30426 10.3894 3.10734 10.1925C2.91043 9.9956 2.7998 9.72853 2.7998 9.45005V6.30005C2.7998 5.37179 3.16855 4.48155 3.82493 3.82518C4.48131 3.1688 5.37155 2.80005 6.2998 2.80005H9.4498C9.72828 2.80005 9.99535 2.91067 10.1923 3.10759C10.3892 3.3045 10.4998 3.57157 10.4998 3.85005C10.4998 4.12853 10.3892 4.3956 10.1923 4.59251C9.99535 4.78942 9.72828 4.90005 9.4498 4.90005H6.2998ZM6.2998 23.1C5.9285 23.1 5.57241 22.9526 5.30985 22.69C5.0473 22.4274 4.8998 22.0714 4.8998 21.7V18.55C4.8998 18.2716 4.78918 18.0045 4.59227 17.8076C4.39535 17.6107 4.12828 17.5 3.8498 17.5C3.57133 17.5 3.30426 17.6107 3.10734 17.8076C2.91043 18.0045 2.7998 18.2716 2.7998 18.55V21.7C2.7998 22.6283 3.16855 23.5185 3.82493 24.1749C4.48131 24.8313 5.37155 25.2 6.2998 25.2H9.4498C9.72828 25.2 9.99535 25.0894 10.1923 24.8925C10.3892 24.6956 10.4998 24.4285 10.4998 24.15C10.4998 23.8716 10.3892 23.6045 10.1923 23.4076C9.99535 23.2107 9.72828 23.1 9.4498 23.1H6.2998ZM23.0998 6.30005C23.0998 5.92875 22.9523 5.57265 22.6898 5.3101C22.4272 5.04755 22.0711 4.90005 21.6998 4.90005H18.5498C18.2713 4.90005 18.0043 4.78942 17.8073 4.59251C17.6104 4.3956 17.4998 4.12853 17.4998 3.85005C17.4998 3.57157 17.6104 3.3045 17.8073 3.10759C18.0043 2.91067 18.2713 2.80005 18.5498 2.80005H21.6998C22.6281 2.80005 23.5183 3.1688 24.1747 3.82518C24.8311 4.48155 25.1998 5.37179 25.1998 6.30005V9.45005C25.1998 9.72853 25.0892 9.9956 24.8923 10.1925C24.6954 10.3894 24.4283 10.5 24.1498 10.5C23.8713 10.5 23.6043 10.3894 23.4073 10.1925C23.2104 9.9956 23.0998 9.72853 23.0998 9.45005V6.30005ZM21.6998 23.1C22.0711 23.1 22.4272 22.9526 22.6898 22.69C22.9523 22.4274 23.0998 22.0714 23.0998 21.7V18.55C23.0998 18.2716 23.2104 18.0045 23.4073 17.8076C23.6043 17.6107 23.8713 17.5 24.1498 17.5C24.4283 17.5 24.6954 17.6107 24.8923 17.8076C25.0892 18.0045 25.1998 18.2716 25.1998 18.55V21.7C25.1998 22.6283 24.8311 23.5185 24.1747 24.1749C23.5183 24.8313 22.6281 25.2 21.6998 25.2H18.5498C18.2713 25.2 18.0043 25.0894 17.8073 24.8925C17.6104 24.6956 17.4998 24.4285 17.4998 24.15C17.4998 23.8716 17.6104 23.6045 17.8073 23.4076C18.0043 23.2107 18.2713 23.1 18.5498 23.1H21.6998ZM8.3998 14C8.3998 13.7216 8.51043 13.4545 8.70734 13.2576C8.90426 13.0607 9.17133 12.95 9.4498 12.95H18.5498C18.8283 12.95 19.0954 13.0607 19.2923 13.2576C19.4892 13.4545 19.5998 13.7216 19.5998 14C19.5998 14.2785 19.4892 14.5456 19.2923 14.7425C19.0954 14.9394 18.8283 15.05 18.5498 15.05H9.4498C9.17133 15.05 8.90426 14.9394 8.70734 14.7425C8.51043 14.5456 8.3998 14.2785 8.3998 14Z" fill="#891518"/>
</svg>
