<svg width="26" height="26" viewBox="0 0 26 26" fill="none" xmlns="http://www.w3.org/2000/svg">
<path d="M23.8333 13C23.8333 18.9832 18.9832 23.8333 13 23.8333C7.01671 23.8333 2.16663 18.9832 2.16663 13C2.16663 7.01671 7.01671 2.16663 13 2.16663C18.9832 2.16663 23.8333 7.01671 23.8333 13Z" fill="white"/>
<path d="M13 19.2292C13.2154 19.2292 13.4221 19.1436 13.5745 18.9912C13.7269 18.8389 13.8125 18.6322 13.8125 18.4167V11.9167C13.8125 11.7012 13.7269 11.4946 13.5745 11.3422C13.4221 11.1898 13.2154 11.1042 13 11.1042C12.7845 11.1042 12.5778 11.1898 12.4254 11.3422C12.2731 11.4946 12.1875 11.7012 12.1875 11.9167V18.4167C12.1875 18.8652 12.5515 19.2292 13 19.2292ZM13 7.58337C13.2873 7.58337 13.5628 7.69751 13.766 7.90068C13.9692 8.10384 14.0833 8.37939 14.0833 8.66671C14.0833 8.95403 13.9692 9.22957 13.766 9.43274C13.5628 9.6359 13.2873 9.75004 13 9.75004C12.7126 9.75004 12.4371 9.6359 12.2339 9.43274C12.0308 9.22957 11.9166 8.95403 11.9166 8.66671C11.9166 8.37939 12.0308 8.10384 12.2339 7.90068C12.4371 7.69751 12.7126 7.58337 13 7.58337Z" fill="#E43135"/>
</svg>
