<svg width="25" height="24" viewBox="0 0 25 24" fill="none" xmlns="http://www.w3.org/2000/svg">
<path d="M7.13171 10.2632H10.7107" stroke="#555B70" stroke-opacity="0.5" stroke-width="1.34211" stroke-linecap="round" stroke-linejoin="round"/>
<path d="M20.4034 11.158H18.0752C16.4781 11.158 15.1843 12.3596 15.1843 13.8422C15.1843 15.3248 16.479 16.5264 18.0743 16.5264H20.4034C20.4785 16.5264 20.5152 16.5264 20.5465 16.5246C21.0297 16.4951 21.4144 16.1381 21.4457 15.6898C21.4475 15.6612 21.4475 15.6263 21.4475 15.5574V12.127C21.4475 12.0581 21.4475 12.0232 21.4457 11.9945C21.4135 11.5463 21.0297 11.1893 20.5465 11.1597C20.5152 11.158 20.4785 11.158 20.4034 11.158Z" stroke="#555B70" stroke-opacity="0.5" stroke-width="1.34211"/>
<path d="M20.5215 11.1578C20.4517 9.48284 20.2281 8.45567 19.5042 7.73272C18.4565 6.68408 16.769 6.68408 13.3949 6.68408H10.7107C7.3366 6.68408 5.64912 6.68408 4.60137 7.73272C3.55363 8.78136 3.55273 10.468 3.55273 13.842C3.55273 17.2161 3.55273 18.9036 4.60137 19.9513C5.65001 20.9991 7.3366 21 10.7107 21H13.3949C16.769 21 18.4565 21 19.5042 19.9513C20.2281 19.2284 20.4526 18.2012 20.5215 16.5263" stroke="#555B70" stroke-opacity="0.5" stroke-width="1.34211"/>
<path d="M7.13171 6.68418L10.4736 4.4679C10.9437 4.16253 11.4922 4 12.0528 4C12.6134 4 13.1619 4.16253 13.632 4.4679L16.9739 6.68418" stroke="#555B70" stroke-opacity="0.5" stroke-width="1.34211" stroke-linecap="round"/>
<path d="M17.8605 13.842H17.8694" stroke="#555B70" stroke-opacity="0.5" stroke-width="1.78949" stroke-linecap="round" stroke-linejoin="round"/>
</svg>
