<svg width="31" height="30" viewBox="0 0 31 30" fill="none" xmlns="http://www.w3.org/2000/svg">
<path fill-rule="evenodd" clip-rule="evenodd" d="M2.77246 6.59C2.89196 6.56006 3.0162 6.55396 3.13806 6.57206C3.25992 6.59016 3.37702 6.6321 3.48266 6.69549C3.58831 6.75888 3.68042 6.84246 3.75374 6.94147C3.82706 7.04048 3.88014 7.15297 3.90996 7.2725L4.38746 9.18251C4.76121 10.6768 5.53924 12.0393 6.6362 13.1206C7.73317 14.2019 9.10671 14.9603 10.6062 15.3125H20.5C21.7629 15.3124 22.9819 15.776 23.9257 16.6151C24.8695 17.4543 25.4724 18.6107 25.62 19.865L26.4312 26.765C26.4457 26.8873 26.4359 27.0112 26.4024 27.1298C26.369 27.2483 26.3125 27.359 26.2362 27.4557C26.16 27.5524 26.0654 27.6331 25.958 27.6933C25.8505 27.7534 25.7323 27.7918 25.61 27.8063C25.4877 27.8207 25.3637 27.8109 25.2452 27.7775C25.1267 27.744 25.0159 27.6875 24.9192 27.6113C24.8226 27.535 24.7418 27.4405 24.6817 27.333C24.6215 27.2256 24.5832 27.1073 24.5687 26.985L23.7562 20.085C23.6625 19.2871 23.2792 18.5512 22.679 18.0171C22.0788 17.4831 21.3034 17.1878 20.5 17.1875H10.3975L10.2975 17.165C8.43714 16.7517 6.72865 15.8286 5.36337 14.4991C3.99809 13.1696 3.02997 11.4862 2.56746 9.63751L2.08996 7.7275C2.05999 7.60808 2.05384 7.48393 2.07186 7.36213C2.08988 7.24034 2.13172 7.12328 2.19498 7.01765C2.25824 6.91202 2.34169 6.81989 2.44056 6.74651C2.53943 6.67314 2.65303 6.61996 2.77246 6.59Z" fill="#E43135"/>
<path opacity="0.2" d="M10.5 17.1875V22.5C10.5 24.8575 10.5 26.035 11.2325 26.7675C11.965 27.5 13.1425 27.5 15.5 27.5C17.8575 27.5 19.035 27.5 19.7675 26.7675C20.5 26.035 20.5 24.8575 20.5 22.5V17.1875H10.5Z" fill="#E43135"/>
<path d="M15.5 12.5C18.2614 12.5 20.5 10.2614 20.5 7.5C20.5 4.73858 18.2614 2.5 15.5 2.5C12.7386 2.5 10.5 4.73858 10.5 7.5C10.5 10.2614 12.7386 12.5 15.5 12.5Z" fill="#E43135"/>
</svg>
