<svg width="31" height="30" viewBox="0 0 31 30" fill="none" xmlns="http://www.w3.org/2000/svg">
<path opacity="0.2" d="M4.83 4.33C3 6.1625 3 9.1075 3 15C3 20.8925 3 23.8387 4.83 25.6688C6.6625 27.5 9.6075 27.5 15.5 27.5C21.3925 27.5 24.3387 27.5 26.1688 25.6688C28 23.84 28 20.8925 28 15C28 9.1075 28 6.16125 26.1688 4.33C24.34 2.5 21.3925 2.5 15.5 2.5C9.6075 2.5 6.66125 2.5 4.83 4.33Z" fill="#E43135"/>
<path d="M13.005 7.18995C13.1281 7.1893 13.2499 7.1644 13.3634 7.11668C13.4769 7.06896 13.5799 6.99935 13.6664 6.91183C13.753 6.82431 13.8215 6.7206 13.8681 6.6066C13.9146 6.49261 13.9382 6.37057 13.9375 6.24746C13.9368 6.12434 13.9119 6.00256 13.8642 5.88907C13.8165 5.77558 13.7469 5.6726 13.6594 5.58601C13.5719 5.49942 13.4681 5.43091 13.3541 5.3844C13.2402 5.3379 13.1181 5.3143 12.995 5.31495C11.6425 5.32245 10.52 5.35245 9.60375 5.5137C8.66375 5.67745 7.86 5.99121 7.20125 6.61746C6.6325 7.15871 6.25125 7.70745 6.045 8.4962C5.8575 9.21121 5.82375 10.09 5.815 11.2437C5.81318 11.4923 5.9102 11.7315 6.08473 11.9086C6.25925 12.0857 6.49698 12.1863 6.74563 12.1881C6.99427 12.1899 7.23345 12.0929 7.41055 11.9184C7.58766 11.7438 7.68818 11.5061 7.69 11.2575C7.7 10.0712 7.74 9.42495 7.85875 8.97246C7.95875 8.5937 8.11625 8.33496 8.495 7.97496C8.7975 7.68746 9.21 7.48496 9.92625 7.35996C10.6662 7.2312 11.6387 7.19745 13.005 7.18995ZM18.005 5.31495C17.7564 5.31363 17.5174 5.41113 17.3406 5.58601C17.1639 5.76088 17.0638 5.99881 17.0625 6.24746C17.0612 6.4961 17.1587 6.73508 17.3336 6.91183C17.5084 7.08858 17.7464 7.18863 17.995 7.18995C19.3613 7.19745 20.3337 7.2312 21.0737 7.35996C21.79 7.48496 22.2025 7.68746 22.505 7.97496C22.8838 8.33621 23.0425 8.5937 23.1413 8.97246C23.26 9.42495 23.3012 10.0725 23.31 11.2575C23.3118 11.5061 23.4123 11.7438 23.5894 11.9184C23.6771 12.0048 23.781 12.0731 23.8951 12.1193C24.0092 12.1656 24.1313 12.189 24.2544 12.1881C24.3775 12.1872 24.4992 12.162 24.6126 12.1141C24.726 12.0661 24.8289 11.9963 24.9153 11.9086C25.0017 11.8209 25.07 11.7171 25.1163 11.603C25.1625 11.4889 25.1859 11.3668 25.185 11.2437C25.1762 10.09 25.1425 9.21121 24.955 8.4962C24.7475 7.7087 24.3675 7.15871 23.7987 6.61746C23.14 5.99121 22.3362 5.67745 21.3962 5.5137C20.48 5.35245 19.3575 5.32245 18.005 5.31495ZM6.75 14.0625C6.50136 14.0625 6.2629 14.1612 6.08709 14.337C5.91127 14.5129 5.8125 14.7513 5.8125 15C5.8125 15.2486 5.91127 15.4871 6.08709 15.6629C6.2629 15.8387 6.50136 15.9375 6.75 15.9375H24.25C24.4986 15.9375 24.7371 15.8387 24.9129 15.6629C25.0887 15.4871 25.1875 15.2486 25.1875 15C25.1875 14.7513 25.0887 14.5129 24.9129 14.337C24.7371 14.1612 24.4986 14.0625 24.25 14.0625H6.75ZM7.69 18.7437C7.6891 18.6206 7.66395 18.4989 7.61601 18.3855C7.56806 18.2721 7.49824 18.1692 7.41055 18.0828C7.32286 17.9964 7.219 17.9281 7.10491 17.8818C6.99083 17.8355 6.86874 17.8122 6.74563 17.8131C6.62251 17.814 6.50078 17.8391 6.38738 17.8871C6.27399 17.935 6.17114 18.0048 6.08473 18.0925C5.99831 18.1802 5.93001 18.2841 5.88373 18.3982C5.83745 18.5123 5.8141 18.6343 5.815 18.7575C5.82375 19.9112 5.8575 20.79 6.045 21.505C6.2525 22.2925 6.6325 22.8425 7.20125 23.3837C7.86 24.0087 8.66375 24.3225 9.60375 24.4875C10.52 24.6475 11.6425 24.6787 12.995 24.6862C13.1181 24.6869 13.2402 24.6633 13.3541 24.6168C13.4681 24.5702 13.5719 24.5017 13.6594 24.4152C13.7469 24.3286 13.8165 24.2256 13.8642 24.1121C13.9119 23.9986 13.9368 23.8768 13.9375 23.7537C13.9382 23.6306 13.9146 23.5086 13.8681 23.3946C13.8215 23.2806 13.753 23.1768 13.6664 23.0893C13.5799 23.0018 13.4769 22.9322 13.3634 22.8845C13.2499 22.8368 13.1281 22.8119 13.005 22.8112C11.6387 22.8037 10.6662 22.77 9.92625 22.64C9.21 22.515 8.7975 22.3137 8.495 22.025C8.11625 21.665 7.9575 21.4062 7.85875 21.0287C7.74 20.5762 7.7 19.9287 7.69 18.7437ZM25.185 18.7575C25.1868 18.5088 25.0898 18.2696 24.9153 18.0925C24.7407 17.9154 24.503 17.8149 24.2544 17.8131C24.0057 17.8113 23.7666 17.9083 23.5894 18.0828C23.4123 18.2573 23.3118 18.4951 23.31 18.7437C23.3 19.9287 23.26 20.5762 23.1413 21.0287C23.0413 21.4062 22.8838 21.665 22.505 22.025C22.2025 22.3125 21.79 22.515 21.0737 22.64C20.3337 22.77 19.3613 22.8025 17.995 22.8112C17.8719 22.8119 17.7501 22.8368 17.6366 22.8845C17.5231 22.9322 17.4201 23.0018 17.3336 23.0893C17.1587 23.2661 17.0612 23.5051 17.0625 23.7537C17.0638 24.0023 17.1639 24.2403 17.3406 24.4152C17.5174 24.59 17.7564 24.6875 18.005 24.6862C19.3575 24.6787 20.48 24.6487 21.3962 24.4862C22.3362 24.3237 23.14 24.01 23.7987 23.3837C24.3675 22.8412 24.7487 22.2925 24.955 21.505C25.1425 20.79 25.1762 19.9112 25.185 18.7575Z" fill="#E43135"/>
</svg>
