<svg width="31" height="30" viewBox="0 0 31 30" fill="none" xmlns="http://www.w3.org/2000/svg">
<path opacity="0.2" d="M18 25H13C8.28625 25 5.92875 25 4.465 23.535C3.00125 22.07 3 19.7137 3 15C3 14.4475 3.0025 12.99 3.005 12.5H28C28.0025 12.99 28 14.4475 28 15C28 15.825 28 16.5762 27.9925 17.265L26.2388 15.5113C25.9776 15.2501 25.6675 15.0429 25.3263 14.9016C24.9851 14.7602 24.6193 14.6875 24.25 14.6875C23.8807 14.6875 23.5149 14.7602 23.1737 14.9016C22.8325 15.0429 22.5224 15.2501 22.2612 15.5113L19.7612 18.0112C19.3868 18.3857 19.1257 18.8584 19.0079 19.3747C18.8902 19.8911 18.9207 20.4302 19.0958 20.93C19.2709 21.4298 19.5836 21.87 19.9979 22.1999C20.4122 22.5299 20.9112 22.7361 21.4375 22.795V24.9675C20.455 25 19.32 25 18 25Z" fill="#E43135"/>
<path fill-rule="evenodd" clip-rule="evenodd" d="M23.5874 16.8375C23.7632 16.662 24.0015 16.5634 24.2499 16.5634C24.4984 16.5634 24.7367 16.662 24.9124 16.8375L27.4124 19.3375C27.5046 19.4234 27.5784 19.5269 27.6297 19.6419C27.6809 19.7569 27.7085 19.881 27.7107 20.0069C27.7129 20.1328 27.6898 20.2578 27.6426 20.3745C27.5954 20.4913 27.5253 20.5973 27.4362 20.6863C27.3472 20.7754 27.2412 20.8455 27.1244 20.8927C27.0077 20.9398 26.8827 20.963 26.7568 20.9608C26.6309 20.9585 26.5068 20.931 26.3918 20.8798C26.2768 20.8285 26.1733 20.7546 26.0874 20.6625L25.1874 19.7625V25C25.1874 25.2487 25.0887 25.4871 24.9129 25.6629C24.737 25.8388 24.4986 25.9375 24.2499 25.9375C24.0013 25.9375 23.7628 25.8388 23.587 25.6629C23.4112 25.4871 23.3124 25.2487 23.3124 25V19.7625L22.4124 20.6625C22.3266 20.7546 22.2231 20.8285 22.1081 20.8798C21.9931 20.931 21.869 20.9585 21.7431 20.9608C21.6172 20.963 21.4922 20.9398 21.3755 20.8927C21.2587 20.8455 21.1527 20.7754 21.0636 20.6863C20.9746 20.5973 20.9044 20.4913 20.8573 20.3745C20.8101 20.2578 20.787 20.1328 20.7892 20.0069C20.7914 19.881 20.819 19.7569 20.8702 19.6419C20.9215 19.5269 20.9953 19.4234 21.0874 19.3375L23.5874 16.8375Z" fill="#E43135"/>
<path d="M16.125 19.0625C15.8764 19.0625 15.6379 19.1613 15.4621 19.3371C15.2863 19.5129 15.1875 19.7514 15.1875 20C15.1875 20.2486 15.2863 20.4871 15.4621 20.6629C15.6379 20.8387 15.8764 20.9375 16.125 20.9375H18C18.2486 20.9375 18.4871 20.8387 18.6629 20.6629C18.8387 20.4871 18.9375 20.2486 18.9375 20C18.9375 19.7514 18.8387 19.5129 18.6629 19.3371C18.4871 19.1613 18.2486 19.0625 18 19.0625H16.125ZM8 19.0625C7.75136 19.0625 7.5129 19.1613 7.33709 19.3371C7.16127 19.5129 7.0625 19.7514 7.0625 20C7.0625 20.2486 7.16127 20.4871 7.33709 20.6629C7.5129 20.8387 7.75136 20.9375 8 20.9375H13C13.2486 20.9375 13.4871 20.8387 13.6629 20.6629C13.8387 20.4871 13.9375 20.2486 13.9375 20C13.9375 19.7514 13.8387 19.5129 13.6629 19.3371C13.4871 19.1613 13.2486 19.0625 13 19.0625H8ZM12.9937 5H18.0062C22.7325 5 25.0962 5 26.5637 6.395C27.6212 7.39875 27.9175 8.845 28 11.25V12.5H3V11.25C3.0825 8.84375 3.37875 7.4 4.43625 6.395C5.90375 5 8.2675 5 12.9937 5Z" fill="#E43135"/>
</svg>
