<svg width="24" height="24" viewBox="0 0 24 24" fill="none" xmlns="http://www.w3.org/2000/svg">
<g clip-path="url(#clip0_2158_607)">
<path d="M8.07723 5.1622C9.49555 5.51768 11.0103 5.05714 12.1739 4.22241C13.3223 5.06434 14.8234 5.50689 16.2324 5.1658C16.4691 5.71053 16.839 6.21209 17.378 6.48841C17.9666 6.78848 18.6157 6.96766 19.2655 7.07272C18.8675 7.91033 18.8985 8.85515 18.8906 9.75896L18.8603 9.78991C17.5291 9.80718 16.1964 9.78775 14.8652 9.79926C14.7004 9.16458 14.3377 8.57595 13.8016 8.19097C12.9992 7.58939 11.8573 7.5016 10.9678 7.9607C10.2403 8.3169 9.71502 9.01562 9.53153 9.79998C8.18948 9.79134 6.84744 9.7971 5.5054 9.7971C5.51188 8.87674 5.52915 7.9168 5.13049 7.06265C5.79108 6.92377 6.46822 6.77121 7.05397 6.42221C7.5325 6.13869 7.87646 5.67455 8.07723 5.1622ZM11.8774 5.85877C11.6061 5.8674 11.3341 5.86956 11.0628 5.86956C11.2672 6.0437 11.4831 6.20489 11.7004 6.36248C11.6162 6.61938 11.532 6.87627 11.4694 7.13964C11.6824 6.98205 11.8968 6.8259 12.1127 6.67263C12.3271 6.81942 12.538 6.9727 12.7603 7.1087C12.6956 6.85972 12.6164 6.61434 12.5358 6.3704C12.7474 6.20129 12.9661 6.04154 13.1878 5.88539C12.91 5.86524 12.6308 5.86596 12.3523 5.85373C12.284 5.61051 12.2113 5.36872 12.13 5.1291C12.0213 5.36297 11.9458 5.61051 11.8774 5.85877ZM8.20172 6.44092C8.12616 6.69997 8.0506 6.95903 7.97505 7.21808C7.70736 7.22312 7.43967 7.22527 7.1727 7.23391C7.37131 7.39438 7.57927 7.54262 7.79443 7.68078C7.72463 7.94559 7.64043 8.2068 7.56704 8.47089C7.79371 8.33345 7.988 8.14851 8.21827 8.01755C8.45501 8.1442 8.65434 8.32841 8.88461 8.46657C8.80977 8.20176 8.70975 7.94487 8.64139 7.6779C8.85799 7.54406 9.06523 7.39654 9.25952 7.23247C8.99903 7.22671 8.73853 7.22384 8.47804 7.21376C8.40464 6.94967 8.31901 6.68918 8.20172 6.44092ZM15.9841 6.43228C15.9035 6.69422 15.8251 6.95615 15.7488 7.2188C15.4818 7.22312 15.2156 7.22384 14.9493 7.23463C15.1631 7.39942 15.3926 7.54406 15.6071 7.70884C15.5099 7.95926 15.4192 8.21256 15.3451 8.47089C15.5689 8.32481 15.7798 8.16003 15.9942 8.00172C16.2129 8.15787 16.4295 8.31762 16.6555 8.4637C16.585 8.20104 16.49 7.94559 16.413 7.6851C16.6339 7.54118 16.8534 7.39438 17.0729 7.2483C16.8066 7.21952 16.5382 7.21808 16.2705 7.22528C16.1748 6.96118 16.0899 6.69278 15.9841 6.43228Z" fill="white"/>
<path d="M3.14176 1.08391C3.62965 0.996123 4.12904 1.01195 4.62268 1.01555C9.87428 1.00332 15.1266 1.02131 20.3782 1.00908C20.9539 1.0062 21.5432 1.15084 22.0124 1.49408C22.6751 1.95678 23.0817 2.75265 23.0774 3.55931C23.0788 9.1743 23.0788 14.7893 23.0774 20.4036C23.0946 21.506 22.3074 22.5537 21.2431 22.8415C20.825 22.966 20.3832 22.938 19.9522 22.9401C14.674 22.9401 9.39575 22.9394 4.11753 22.9408C3.60806 22.9524 3.07628 22.9351 2.61286 22.6976C1.73856 22.2961 1.13769 21.3642 1.15928 20.3985C1.15784 14.7871 1.15784 9.17574 1.15928 3.56435C1.12762 2.40437 2.01128 1.31706 3.14176 1.08391ZM3.48789 2.14963C2.80571 2.22807 2.2617 2.8793 2.29408 3.56363C2.29552 9.17574 2.29264 14.7886 2.29624 20.4007C2.28113 21.139 2.94891 21.7924 3.68434 21.7737C9.29716 21.7773 14.9107 21.7751 20.5235 21.7744C21.269 21.8075 21.9491 21.1483 21.9375 20.4021C21.9397 14.7634 21.9411 9.12465 21.9368 3.48592C21.9383 2.74977 21.2654 2.1043 20.53 2.13596C15.0834 2.13452 9.63609 2.13596 4.18949 2.13524C3.95562 2.13668 3.72031 2.12444 3.48789 2.14963Z" fill="#10357F"/>
<path d="M11.4262 3.39427C11.7047 3.21365 11.9083 2.951 12.1271 2.7085C12.6567 3.45975 13.531 3.89367 14.4111 4.08652C15.2336 4.27001 16.0856 4.21748 16.9131 4.09803C17.0664 4.63413 17.4254 5.09971 17.8946 5.39762C18.7337 5.94667 19.7569 6.13016 20.7449 6.15175C20.1858 7.02893 19.8706 8.06011 19.867 9.10208C19.8591 11.8358 19.8692 14.5696 19.862 17.3033C19.8562 17.9365 19.7828 18.6396 19.3122 19.1123C18.8171 19.6254 18.0774 19.7132 17.4204 19.8802C15.8841 20.2414 14.3499 20.6105 12.8107 20.961C12.5221 21.0193 12.2732 21.2071 12.1184 21.4553C11.9429 21.2423 11.722 21.0552 11.4471 20.9912C9.67399 20.5566 7.89803 20.1356 6.11992 19.7211C5.65938 19.6139 5.18948 19.4369 4.86423 19.0792C4.4188 18.6072 4.35044 17.9243 4.34468 17.3054C4.33964 14.666 4.34396 12.0265 4.34324 9.38776C4.36195 8.26232 4.12017 7.10305 3.48621 6.15895C4.53106 6.11505 5.63491 5.93875 6.48907 5.29112C6.89492 4.99392 7.17124 4.55641 7.33891 4.08796C8.71837 4.34125 10.254 4.23044 11.4262 3.39427ZM8.07721 5.16231C7.87645 5.67466 7.53248 6.1388 7.05395 6.42232C6.4682 6.77132 5.79106 6.92387 5.13048 7.06276C5.52913 7.91691 5.51186 8.87685 5.50538 9.79721C6.84743 9.79721 8.18947 9.79145 9.53151 9.80009C9.71501 9.01573 10.2403 8.31701 10.9678 7.96081C11.8572 7.50171 12.9992 7.5895 13.8016 8.19108C14.3377 8.57606 14.7003 9.16469 14.8651 9.79937C16.1964 9.78786 17.5291 9.80729 18.8603 9.79001L18.8905 9.75907C18.8985 8.85526 18.8675 7.91044 19.2654 7.07283C18.6157 6.96777 17.9666 6.78859 17.378 6.48852C16.839 6.2122 16.4691 5.71064 16.2324 5.16591C14.8234 5.50699 13.3223 5.06444 12.1739 4.22252C11.0103 5.05725 9.49553 5.51779 8.07721 5.16231ZM11.6745 8.3278C11.7428 8.55519 11.8004 8.78546 11.8572 9.01573C11.6845 9.0661 11.5205 9.14166 11.3643 9.23089C11.2477 9.02293 11.1254 8.81784 11.0132 8.60772C10.8009 8.60628 10.5886 8.607 10.3763 8.60556C10.3742 8.81856 10.3742 9.03084 10.3749 9.24384C10.5828 9.35898 10.7894 9.47771 10.9966 9.59501C10.9189 9.75979 10.8484 9.92818 10.7858 10.0987C10.5612 10.0412 10.3418 9.96344 10.1144 9.91882C9.93664 10.0412 9.7992 10.2131 9.63873 10.3571C9.76538 10.5161 9.89634 10.6744 10.0583 10.7996C10.2943 10.7867 10.5181 10.6881 10.7476 10.6348C10.8081 10.7982 10.8829 10.9565 10.9469 11.1191C10.7807 11.281 10.5461 11.3587 10.349 11.4811C10.3468 11.6933 10.3461 11.9063 10.349 12.1193C10.5634 12.1114 10.7836 12.1431 10.9937 12.0949C11.1189 11.8999 11.2211 11.6912 11.3406 11.4933C11.4996 11.5768 11.6651 11.6466 11.8349 11.7063C11.7759 11.9438 11.7169 12.1819 11.6464 12.4172C11.7975 12.5569 11.9162 12.7497 12.1048 12.8389C12.253 12.7058 12.425 12.5784 12.5185 12.4007C12.4862 12.1697 12.4185 11.9452 12.3732 11.7164C12.5473 11.6602 12.715 11.5847 12.8747 11.4947C12.9877 11.6955 13.0885 11.9035 13.2144 12.0963C13.4245 12.1409 13.6433 12.1129 13.857 12.1193C13.8599 11.9049 13.8613 11.6912 13.8577 11.4775C13.6483 11.3681 13.4454 11.2465 13.241 11.1292C13.3159 10.9637 13.3878 10.7967 13.454 10.6269C13.6915 10.6909 13.9297 10.7543 14.1664 10.8205C14.3132 10.673 14.4593 10.5262 14.6061 10.3801C14.46 10.2232 14.3067 10.0728 14.1455 9.93177C13.9289 10.0052 13.7073 10.0635 13.4864 10.1225C13.4259 9.94904 13.3533 9.78066 13.2662 9.61947C13.4727 9.50793 13.6785 9.39352 13.8836 9.2791C13.8886 9.06323 13.8886 8.84807 13.885 8.63219C13.6749 8.64298 13.4569 8.60628 13.2525 8.65666C13.118 8.84447 13.0187 9.05531 12.8999 9.25392C12.738 9.1798 12.5725 9.11288 12.4034 9.05675C12.4552 8.82288 12.5164 8.59117 12.5891 8.36306C12.4358 8.20115 12.2768 8.045 12.1163 7.88957C11.9695 8.03637 11.8227 8.18316 11.6745 8.3278ZM5.44134 10.9299C5.45142 12.9123 5.44494 14.8941 5.44494 16.8759C5.44926 17.258 5.41759 17.6559 5.56151 18.0186C5.66298 18.2827 5.899 18.4719 6.16093 18.5647C6.75964 18.7864 7.3936 18.8814 8.00957 19.0433C9.19186 19.3182 10.3698 19.6175 11.5572 19.8722C11.568 17.5962 11.5572 15.3194 11.5622 13.0433C11.1966 12.9231 10.8282 12.7893 10.5202 12.5511C9.98126 12.1683 9.60923 11.5796 9.45955 10.9385C8.12039 10.9191 6.7805 10.937 5.44134 10.9299ZM14.7781 10.9068C14.5665 11.9373 13.7253 12.7871 12.6984 13.0124C12.7085 15.2985 12.679 17.5854 12.7136 19.8708C14.3945 19.4261 16.1014 19.0872 17.7831 18.6446C18.0968 18.5539 18.4336 18.4251 18.6171 18.1366C18.8121 17.8257 18.8099 17.445 18.8143 17.091C18.8099 15.0287 18.8186 12.9663 18.8107 10.9039C17.4665 10.9068 16.1223 10.9011 14.7781 10.9068Z" fill="#10357F"/>
<path d="M7.41901 12.4712C7.66655 12.4079 7.91769 12.3568 8.1494 12.2431C8.36456 12.2395 8.63656 12.1776 8.81358 12.3237C8.9611 12.6741 8.97261 13.0656 9.01723 13.4398C9.60874 13.4506 10.201 13.4463 10.7925 13.4427C10.7774 13.6679 10.7543 13.8931 10.7234 14.1169C10.3168 14.1234 9.90809 14.1119 9.50295 14.1515L9.48137 14.2242C9.86707 14.3393 10.2772 14.3393 10.6701 14.4249C10.6047 14.6221 10.5305 14.8164 10.4543 15.0092C10.1211 14.9545 9.79367 14.8696 9.46194 14.8077C9.46266 14.83 9.46482 14.8754 9.46626 14.8984C9.73179 15.0726 10.0427 15.1675 10.2995 15.3568C10.1945 15.536 10.0585 15.6928 9.92608 15.8512C9.71739 15.6943 9.51159 15.5309 9.27628 15.4158C9.37487 15.6475 9.5303 15.8476 9.66127 16.0613C9.44539 16.1922 9.644 16.3693 9.74042 16.5081C9.78504 16.5571 9.8203 16.6298 9.89441 16.6369C9.95846 16.5412 10.0117 16.4383 10.0772 16.3426C10.1916 16.316 10.3103 16.3203 10.4269 16.3131C10.5018 16.5772 10.5349 16.8636 10.3442 17.0889C10.3262 16.9838 10.3075 16.8794 10.2888 16.7751C10.0966 16.855 10.0024 17.0543 9.9196 17.2328C9.92032 17.3724 10.0729 17.3709 10.1693 17.4148C10.0808 17.4839 10.0024 17.5918 9.8757 17.5782C9.76777 17.4889 9.69653 17.3645 9.61881 17.25C9.64615 17.1536 9.6663 17.0558 9.67854 16.9564C9.55908 16.7463 9.40365 16.5585 9.26981 16.3577C9.1777 16.4297 9.02658 16.4599 8.98917 16.5808C9.15971 17.0248 9.41085 17.435 9.57707 17.8811C9.47561 18.0214 9.30003 18.0797 9.15755 18.1704C9.00572 17.8128 8.87835 17.4458 8.73803 17.0838C8.7222 17.522 8.85028 17.9459 8.87187 18.382C8.72723 18.4705 8.58188 18.5583 8.4358 18.6461C8.29116 18.5561 8.14724 18.4669 8.00188 18.3791C8.0393 17.9668 8.13645 17.5602 8.13357 17.145C7.9803 17.4875 7.88891 17.8545 7.73204 18.1963C7.58668 18.1049 7.44348 18.0121 7.301 17.9171C7.51328 17.4731 7.74499 17.0356 7.92057 16.5751C7.83997 16.4952 7.73779 16.4434 7.64353 16.3837C7.51688 16.5621 7.37224 16.7291 7.26286 16.9197C7.16716 17.0637 7.33122 17.2464 7.22328 17.3868C7.14989 17.4882 7.07577 17.6494 6.92393 17.6257C6.86493 17.5818 6.80952 17.535 6.75699 17.4839C6.82823 17.4263 6.95775 17.412 6.98222 17.309C6.92249 17.1263 6.79656 16.9744 6.64977 16.8535C6.60731 16.955 6.56558 17.0579 6.52312 17.1601C6.3792 16.9255 6.39863 16.6578 6.46987 16.4038C6.59148 16.4153 6.72173 16.3908 6.83614 16.4398C6.90738 16.5376 6.96351 16.6449 7.02396 16.7492C7.14485 16.6031 7.2643 16.4556 7.36432 16.2944C7.33266 16.2563 7.26934 16.1793 7.2384 16.1411C7.38087 15.9303 7.52623 15.7202 7.64425 15.4935C7.40894 15.5827 7.19594 15.718 6.98294 15.8504C6.8419 15.6957 6.71237 15.5309 6.5958 15.3575C6.8786 15.169 7.22904 15.0812 7.46795 14.8308C7.13405 14.843 6.81887 14.9689 6.48858 15.0035C6.33243 14.8696 6.33531 14.6113 6.26407 14.4213C6.60371 14.3609 6.94912 14.3357 7.28877 14.2731C7.36576 14.2594 7.42693 14.2198 7.47226 14.1529C7.05346 14.1191 6.6325 14.1212 6.21225 14.1162C6.15397 13.8802 6.12231 13.6391 6.09784 13.3981C6.70086 13.3894 7.30316 13.3952 7.90618 13.3959C7.92057 13.2872 7.93496 13.1786 7.95079 13.0699C7.80615 13.0368 7.64712 13.0102 7.55574 12.8807C7.67231 12.8692 7.78888 12.8576 7.90546 12.8447C7.73563 12.7044 7.48953 12.7677 7.28589 12.7296C7.32547 12.6403 7.37008 12.5547 7.41901 12.4712Z" fill="#10357F"/>
<path d="M15.1287 12.282C15.5309 12.3058 15.9375 12.254 16.3376 12.3058C16.5355 12.3972 16.8032 12.3518 16.9428 12.544C17.0457 12.7253 17.3515 12.5605 17.4235 12.7649C17.4271 12.9102 17.3731 13.0477 17.3385 13.1858C17.1306 13.1945 16.9233 13.2024 16.7161 13.2189C16.7053 13.3139 16.6923 13.4082 16.6787 13.5032C16.8607 13.5039 17.0435 13.5046 17.2263 13.5053C17.1881 13.66 17.1507 13.8155 17.1155 13.9709C16.9327 13.9227 16.7434 13.9119 16.5563 13.9321C16.6002 14.2616 16.9356 14.412 17.2069 14.5257C17.3198 14.4581 17.4371 14.3962 17.5429 14.3178C17.581 14.1875 17.5638 14.0486 17.5703 13.9148C17.6753 13.8349 17.7861 13.7615 17.9027 13.6989C17.9013 13.9817 17.8977 14.2645 17.902 14.5473C17.7185 14.6948 17.5393 14.8481 17.3515 14.9913C17.2011 15.1417 17.0054 14.9639 16.8435 14.9244C16.8521 15.0546 16.86 15.1849 16.8679 15.3151C17.1522 15.3489 17.4378 15.3763 17.7199 15.4281C17.8538 15.4353 17.9308 15.5583 17.9963 15.6605C17.9732 15.7447 17.9315 15.8231 17.8782 15.8922C17.6796 15.9361 17.4738 15.9268 17.2723 15.9397C17.2601 15.9037 17.2349 15.8318 17.2227 15.7958C17.032 15.798 16.8406 15.7987 16.6492 15.7987C16.5477 15.9512 16.4513 16.1074 16.3549 16.2628C16.5513 16.2657 16.7478 16.275 16.9442 16.2938C16.9644 16.5039 16.8917 16.7039 16.8284 16.9004C16.9341 16.9033 17.0406 16.9061 17.1471 16.909C17.2205 16.8169 17.2939 16.7248 17.3666 16.6327C17.4933 16.6269 17.6192 16.6197 17.7458 16.6125C17.6314 16.8817 17.5033 17.145 17.368 17.4048C16.9787 17.4048 16.5894 17.4062 16.2009 17.4026C16.2109 17.2523 16.2217 17.1019 16.2268 16.9507C15.9886 16.9443 15.741 16.8982 15.5086 16.9615C15.328 17.1587 15.1884 17.389 15.0229 17.5977C15.097 17.7488 15.174 17.8977 15.2539 18.0467C15.4129 18.051 15.5727 18.0568 15.7317 18.0604C15.8087 18.2251 15.8713 18.3971 15.9173 18.5734C15.5446 18.5626 15.1718 18.5662 14.7998 18.5655C14.5789 18.264 14.3486 17.9697 14.1256 17.6703C14.2666 17.5214 14.4062 17.358 14.4559 17.1537C14.404 16.855 14.2623 16.578 14.2047 16.2801C13.9133 16.2182 13.5916 16.0959 13.4722 15.7972C13.3067 15.3907 13.4902 14.9481 13.7442 14.6229C13.9147 14.4048 14.063 14.0328 13.7895 13.8313C13.6478 13.75 13.6593 13.591 13.6564 13.4492C13.7845 13.4492 13.9133 13.4434 14.0414 13.46C14.3688 13.7298 14.3745 14.2199 14.2033 14.579C14.0795 14.8999 13.7471 15.1791 13.8629 15.5547C13.9104 15.7699 14.1306 15.8476 14.3256 15.8692C14.4551 15.7058 14.6422 15.6051 14.7912 15.4633C14.9193 15.2273 15.0898 14.9798 15.056 14.6984C14.9718 14.792 14.8912 14.887 14.8106 14.9834C14.7494 14.8726 14.6717 14.7653 14.648 14.6387C14.7523 14.4768 14.8797 14.33 14.9689 14.158C14.8228 14.222 14.6832 14.2998 14.5609 14.4019C14.5307 14.24 14.4976 14.0788 14.4666 13.9169C14.6717 13.7414 14.9624 13.632 15.0653 13.3643C14.8941 13.4485 14.7214 13.5298 14.5422 13.5931C14.5847 13.4154 14.6048 13.224 14.7041 13.0664C14.8639 12.8635 15.0812 12.7152 15.2496 12.5202C15.2165 12.4375 15.1704 12.3605 15.1287 12.282Z" fill="#10357F"/>
<path d="M11.8759 5.85882C11.9443 5.61056 12.0198 5.36302 12.1285 5.12915C12.2098 5.36877 12.2825 5.61056 12.3509 5.85378C12.6293 5.86601 12.9085 5.86529 13.1863 5.88544C12.9647 6.04159 12.7459 6.20134 12.5343 6.37045C12.6149 6.61439 12.6941 6.85977 12.7589 7.10875C12.5365 6.97275 12.3257 6.81948 12.1112 6.67268C11.8953 6.82595 11.6809 6.9821 11.4679 7.13969C11.5305 6.87632 11.6147 6.61943 11.6989 6.36253C11.4816 6.20494 11.2657 6.04375 11.0613 5.86961C11.3326 5.86961 11.6046 5.86745 11.8759 5.85882Z" fill="#FDB913"/>
<path d="M8.20041 6.44092C8.3177 6.68918 8.40333 6.94967 8.47673 7.21376C8.73722 7.22384 8.99771 7.22671 9.25821 7.23247C9.06392 7.39654 8.85667 7.54405 8.64008 7.6779C8.70844 7.94487 8.80846 8.20176 8.8833 8.46657C8.65303 8.32841 8.4537 8.1442 8.21696 8.01755C7.98669 8.14851 7.7924 8.33345 7.56572 8.47089C7.63912 8.2068 7.72331 7.94559 7.79312 7.68078C7.57796 7.54262 7.36999 7.39438 7.17139 7.23391C7.43836 7.22527 7.70604 7.22312 7.97373 7.21808C8.04929 6.95902 8.12485 6.69997 8.20041 6.44092Z" fill="#FDB913"/>
<path d="M15.9832 6.43237C16.089 6.69287 16.1739 6.96127 16.2696 7.22537C16.5373 7.21817 16.8057 7.21961 17.0719 7.24839C16.8525 7.39447 16.633 7.54127 16.4121 7.68519C16.4891 7.94568 16.5841 8.20113 16.6546 8.46379C16.4286 8.31771 16.212 8.15796 15.9933 8.00181C15.7788 8.16012 15.568 8.3249 15.3442 8.47098C15.4183 8.21265 15.509 7.95935 15.6061 7.70893C15.3917 7.54415 15.1621 7.39951 14.9484 7.23472C15.2147 7.22393 15.4809 7.22321 15.7479 7.21889C15.8242 6.95624 15.9026 6.69431 15.9832 6.43237Z" fill="#FDB913"/>
<path d="M11.6731 8.32764C11.8213 8.183 11.9681 8.0362 12.1149 7.8894C12.2754 8.04484 12.4344 8.20099 12.5877 8.3629C12.515 8.59101 12.4538 8.82272 12.402 9.05658C12.5711 9.11271 12.7366 9.17964 12.8985 9.25375C13.0173 9.05515 13.1166 8.8443 13.2511 8.65649C13.4555 8.60612 13.6735 8.64282 13.8836 8.63202C13.8872 8.8479 13.8872 9.06306 13.8822 9.27894C13.6771 9.39335 13.4713 9.50777 13.2648 9.61931C13.3519 9.7805 13.4245 9.94888 13.485 10.1223C13.7059 10.0633 13.9275 10.005 14.1441 9.93161C14.3053 10.0727 14.4586 10.223 14.6047 10.3799C14.4579 10.526 14.3118 10.6728 14.165 10.8203C13.9283 10.7541 13.6901 10.6908 13.4526 10.6267C13.3864 10.7966 13.3145 10.9635 13.2396 11.129C13.444 11.2463 13.6469 11.3679 13.8563 11.4773C13.8599 11.691 13.8585 11.9047 13.8556 12.1192C13.6419 12.1127 13.4231 12.1408 13.213 12.0961C13.0871 11.9033 12.9863 11.6953 12.8733 11.4946C12.7136 11.5845 12.5459 11.6601 12.3718 11.7162C12.4171 11.945 12.4848 12.1695 12.5171 12.4005C12.4236 12.5783 12.2516 12.7056 12.1034 12.8388C11.9148 12.7495 11.7961 12.5567 11.645 12.4171C11.7155 12.1818 11.7745 11.9436 11.8335 11.7061C11.6637 11.6464 11.4982 11.5766 11.3392 11.4931C11.2197 11.691 11.1175 11.8997 10.9923 12.0947C10.7822 12.1429 10.562 12.1113 10.3476 12.1192C10.3447 11.9062 10.3454 11.6932 10.3476 11.4809C10.5447 11.3586 10.7793 11.2808 10.9455 11.1189C10.8815 10.9563 10.8067 10.798 10.7462 10.6347C10.5167 10.6879 10.2929 10.7865 10.0569 10.7994C9.89494 10.6742 9.76398 10.5159 9.63733 10.3569C9.7978 10.213 9.93524 10.041 10.113 9.91866C10.3404 9.96327 10.5598 10.041 10.7844 10.0986C10.847 9.92801 10.9175 9.75963 10.9952 9.59484C10.788 9.47755 10.5814 9.35881 10.3735 9.24368C10.3728 9.03068 10.3728 8.8184 10.3749 8.6054C10.5872 8.60684 10.7995 8.60612 11.0118 8.60756C11.124 8.81768 11.2463 9.02276 11.3629 9.23073C11.5191 9.1415 11.6831 9.06594 11.8558 9.01557C11.799 8.7853 11.7414 8.55503 11.6731 8.32764Z" fill="#FDB913"/>
<path d="M5.44122 10.9299C6.78039 10.9371 8.12027 10.9191 9.45943 10.9386C9.60911 11.5797 9.98114 12.1684 10.5201 12.5512C10.8281 12.7894 11.1965 12.9232 11.5621 13.0434C11.557 15.3195 11.5678 17.5963 11.557 19.8723C10.3697 19.6176 9.19174 19.3182 8.00945 19.0434C7.39348 18.8814 6.75952 18.7865 6.16082 18.5648C5.89888 18.472 5.66286 18.2827 5.5614 18.0187C5.41748 17.656 5.44914 17.258 5.44482 16.8759C5.44482 14.8942 5.4513 12.9124 5.44122 10.9299ZM7.41939 12.4713C7.37045 12.5548 7.32584 12.6404 7.28626 12.7296C7.48991 12.7678 7.73601 12.7045 7.90583 12.8448C7.78926 12.8577 7.67268 12.8692 7.55611 12.8808C7.6475 13.0103 7.80653 13.0369 7.95116 13.07C7.93533 13.1787 7.92094 13.2873 7.90655 13.396C7.30353 13.3953 6.70123 13.3895 6.09821 13.3981C6.12268 13.6392 6.15434 13.8803 6.21263 14.1163C6.63287 14.1213 7.05383 14.1192 7.47264 14.153C7.4273 14.2199 7.36614 14.2595 7.28914 14.2732C6.94949 14.3358 6.60409 14.361 6.26444 14.4214C6.33568 14.6114 6.3328 14.8697 6.48895 15.0036C6.81924 14.969 7.13443 14.8431 7.46832 14.8309C7.22941 15.0813 6.87897 15.1691 6.59617 15.3576C6.71274 15.531 6.84227 15.6958 6.98331 15.8505C7.19631 15.7181 7.40931 15.5828 7.64462 15.4936C7.5266 15.7203 7.38125 15.9304 7.23877 16.1412C7.26971 16.1794 7.33303 16.2564 7.3647 16.2945C7.26467 16.4557 7.14522 16.6032 7.02433 16.7493C6.96388 16.6449 6.90775 16.5377 6.83651 16.4399C6.7221 16.3909 6.59185 16.4154 6.47024 16.4039C6.399 16.6579 6.37957 16.9256 6.52349 17.1602C6.56595 17.058 6.60768 16.9551 6.65014 16.8536C6.79694 16.9745 6.92287 17.1264 6.98259 17.3091C6.95813 17.412 6.8286 17.4264 6.75736 17.484C6.80989 17.5351 6.8653 17.5819 6.92431 17.6258C7.07614 17.6495 7.15026 17.4883 7.22366 17.3868C7.3316 17.2465 7.16753 17.0638 7.26323 16.9198C7.37261 16.7291 7.51725 16.5622 7.6439 16.3837C7.73817 16.4435 7.84035 16.4953 7.92094 16.5751C7.74536 17.0357 7.51365 17.4732 7.30137 17.9172C7.44385 18.0122 7.58705 18.105 7.73241 18.1964C7.88928 17.8546 7.98067 17.4876 8.13394 17.1451C8.13682 17.5603 8.03967 17.9668 8.00226 18.3792C8.14761 18.467 8.29153 18.5562 8.43617 18.6461C8.58225 18.5583 8.72761 18.4706 8.87224 18.382C8.85066 17.946 8.72257 17.5221 8.7384 17.0839C8.87872 17.4459 9.00609 17.8128 9.15792 18.1705C9.3004 18.0798 9.47598 18.0215 9.57745 17.8812C9.41122 17.4351 9.16008 17.0249 8.98954 16.5809C9.02696 16.46 9.17807 16.4298 9.27018 16.3578C9.40402 16.5586 9.55946 16.7464 9.67891 16.9565C9.66668 17.0558 9.64653 17.1537 9.61918 17.2501C9.6969 17.3645 9.76814 17.489 9.87608 17.5783C10.0027 17.5919 10.0812 17.484 10.1697 17.4149C10.0732 17.371 9.92069 17.3725 9.91997 17.2329C10.0027 17.0544 10.097 16.8551 10.2891 16.7752C10.3078 16.8795 10.3265 16.9839 10.3445 17.0889C10.5352 16.8637 10.5021 16.5773 10.4273 16.3132C10.3107 16.3204 10.192 16.3161 10.0776 16.3427C10.0121 16.4384 9.95883 16.5413 9.89479 16.637C9.82067 16.6298 9.78541 16.5572 9.74079 16.5082C9.64437 16.3693 9.44576 16.1923 9.66164 16.0614C9.53067 15.8476 9.37524 15.6476 9.27666 15.4159C9.51196 15.531 9.71777 15.6944 9.92645 15.8512C10.0589 15.6929 10.1949 15.5361 10.2999 15.3569C10.043 15.1676 9.73216 15.0726 9.46663 14.8985C9.46519 14.8755 9.46303 14.8301 9.46231 14.8078C9.79404 14.8697 10.1215 14.9546 10.4546 15.0093C10.5309 14.8165 10.605 14.6222 10.6705 14.425C10.2776 14.3394 9.86744 14.3394 9.48174 14.2242L9.50333 14.1516C9.90846 14.112 10.3172 14.1235 10.7238 14.117C10.7547 13.8932 10.7777 13.668 10.7928 13.4428C10.2013 13.4464 9.60911 13.4507 9.0176 13.4399C8.97299 13.0657 8.96147 12.6742 8.81396 12.3238C8.63694 12.1777 8.36493 12.2396 8.14977 12.2432C7.91806 12.3569 7.66693 12.408 7.41939 12.4713Z" fill="#00AEEF"/>
<path d="M14.7774 10.9069C16.1216 10.9012 17.4658 10.9069 18.81 10.9041C18.8179 12.9664 18.8093 15.0288 18.8136 17.0911C18.8093 17.4452 18.8115 17.8258 18.6164 18.1367C18.4329 18.4252 18.0962 18.5541 17.7824 18.6447C16.1007 19.0873 14.3939 19.4262 12.7129 19.8709C12.6784 17.5855 12.7079 15.2986 12.6978 13.0125C13.7246 12.7872 14.5658 11.9374 14.7774 10.9069ZM15.1286 12.2821C15.1703 12.3605 15.2164 12.4375 15.2495 12.5203C15.0811 12.7153 14.8638 12.8635 14.704 13.0664C14.6047 13.224 14.5846 13.4154 14.5421 13.5932C14.7213 13.5298 14.894 13.4485 15.0652 13.3643C14.9623 13.632 14.6716 13.7414 14.4665 13.917C14.4975 14.0789 14.5306 14.2401 14.5608 14.402C14.6831 14.2998 14.8227 14.2221 14.9688 14.1581C14.8796 14.33 14.7522 14.4768 14.6479 14.6387C14.6716 14.7654 14.7493 14.8726 14.8105 14.9834C14.8911 14.887 14.9717 14.792 15.0559 14.6985C15.0897 14.9798 14.9192 15.2274 14.7911 15.4634C14.6421 15.6052 14.455 15.7059 14.3255 15.8692C14.1305 15.8477 13.9103 15.7699 13.8628 15.5548C13.747 15.1792 14.0794 14.9 14.2032 14.579C14.3744 14.2199 14.3687 13.7299 14.0413 13.46C13.9132 13.4435 13.7844 13.4493 13.6563 13.4493C13.6592 13.591 13.6476 13.75 13.7894 13.8314C14.0629 14.0328 13.9146 14.4049 13.7441 14.6229C13.4901 14.9482 13.3066 15.3907 13.4721 15.7973C13.5915 16.0959 13.9132 16.2183 14.2046 16.2801C14.2622 16.578 14.4039 16.8551 14.4558 17.1537C14.4061 17.3581 14.2665 17.5214 14.1255 17.6704C14.3485 17.9697 14.5788 18.2641 14.7997 18.5656C15.1717 18.5663 15.5445 18.5627 15.9172 18.5735C15.8712 18.3972 15.8086 18.2252 15.7316 18.0604C15.5726 18.0568 15.4128 18.0511 15.2538 18.0467C15.1739 17.8978 15.0969 17.7488 15.0228 17.5977C15.1883 17.389 15.3279 17.1588 15.5085 16.9616C15.7409 16.8983 15.9885 16.9443 16.2267 16.9508C16.2216 17.1019 16.2108 17.2523 16.2008 17.4027C16.5893 17.4063 16.9786 17.4049 17.3679 17.4049C17.5032 17.1451 17.6313 16.8817 17.7457 16.6126C17.6191 16.6198 17.4932 16.627 17.3665 16.6327C17.2938 16.7248 17.2204 16.817 17.147 16.9091C17.0405 16.9062 16.934 16.9033 16.8283 16.9004C16.8916 16.704 16.9643 16.5039 16.9441 16.2938C16.7477 16.2751 16.5512 16.2657 16.3548 16.2629C16.4512 16.1074 16.5476 15.9513 16.6491 15.7987C16.8405 15.7987 17.0319 15.798 17.2226 15.7958C17.2348 15.8318 17.26 15.9038 17.2722 15.9398C17.4737 15.9268 17.6795 15.9362 17.8781 15.8923C17.9314 15.8232 17.9731 15.7448 17.9962 15.6606C17.9307 15.5584 17.8537 15.4353 17.7198 15.4281C17.4377 15.3763 17.1521 15.349 16.8678 15.3152C16.8599 15.1849 16.852 15.0547 16.8434 14.9244C17.0053 14.964 17.201 15.1417 17.3514 14.9913C17.5392 14.8481 17.7184 14.6949 17.9019 14.5474C17.8976 14.2646 17.9012 13.9818 17.9026 13.699C17.786 13.7616 17.6752 13.835 17.5702 13.9148C17.5637 14.0487 17.5809 14.1876 17.5428 14.3178C17.437 14.3962 17.3197 14.4581 17.2068 14.5258C16.9355 14.4121 16.6001 14.2617 16.5562 13.9321C16.7433 13.912 16.9326 13.9227 17.1154 13.971C17.1506 13.8155 17.188 13.6601 17.2262 13.5054C17.0434 13.5047 16.8606 13.5039 16.6786 13.5032C16.6922 13.4082 16.7052 13.314 16.716 13.219C16.9232 13.2024 17.1305 13.1945 17.3384 13.1859C17.373 13.0477 17.427 12.9103 17.4234 12.7649C17.3514 12.5606 17.0456 12.7253 16.9427 12.544C16.8031 12.3519 16.5354 12.3972 16.3375 12.3058C15.9374 12.254 15.5308 12.3058 15.1286 12.2821Z" fill="#ED1C24"/>
</g>
<defs>
<clipPath id="clip0_2158_607">
<rect width="24" height="24" fill="white"/>
</clipPath>
</defs>
</svg>
